<svg version="1.0" xmlns="http://www.w3.org/2000/svg" width="340" height="256" viewBox="0 0 255 192"><path d="M58 2.4C58 6.35 56.95 8 54.4 8c-1.65 0-2.15.45-1.75 1.5.3.8 1.15 1.5 1.85 1.5.7 0 1.55-.7 1.85-1.5.85-2.15 3.55-1.85 5.6.65 1.85 2.3 4.35 1.8 3.4-.7-.4-1.05.2-1.45 2.2-1.45 3.35 0 2.95-.7-.8-1.35-1.5-.3-2.75-.1-2.75.4 0 .55-.65.95-1.5.95C61.4 8 61 6.9 61 4s-.4-4-1.5-4c-.9 0-1.5.95-1.5 2.4zM94 5.95c0 .5-1.45 1.1-3.25 1.35-2.8.35-2.7.4 1 .55 3.2.1 4.25-.25 4.25-1.35 0-.85-.45-1.5-1-1.5s-1 .4-1 .95zM3.25 8.7c2.85.75 2.2 4.3-.75 4.3-1.55 0-2.5.55-2.5 1.5 0 .8.65 1.5 1.4 1.5.9 0 1.7 1.55 2.1 4 .6 3.7 2.5 5.7 2.5 2.7 0-3.2 2.55-6.7 4.9-6.7 2.35 0 2.35-.05.6-2-1.4-1.55-2.05-1.75-2.65-.75-.5.8-.85.05-.85-2 0-3-.25-3.25-3.25-3.15-1.8.1-2.45.35-1.5.6zM18.75 9.75c2.5 2.2 2.95 4.8 1 5.6-.7.25 0 .55 1.5.55 1.5.05 2.75-.35 2.75-.9 0-1.45 10.35-1.25 11.95.25 1.1 1 1.2.95.55-.25-.65-1.2-.55-1.25.55-.25 1.6 1.5 5.95 1.65 5.95.25 0-.55-.5-1-1.15-1-.6 0 .1-1.25 1.65-2.75l2.75-2.75L44 8.15c-1.3-.2-3.25.15-4.4.7C36.8 10.2 32 10.9 32 10c0-.4-1.45-.8-3.25-.85-1.8-.05-5.25-.35-7.75-.75l-4.5-.65 2.25 2zM141.2 10.8c.25 2.4 0 2.65-2.45 2.4-3.15-.3-3.7 1.35-.75 2.3 3 .95 1.05 4.5-2.45 4.5-1.1 0-.5-2.85.7-3.35.75-.3.55-.5-.45-.55-1.45-.1-4.8 4.4-4.8 6.3 0 .3 1.35 1.25 3 2.1 2.25 1.15 2.95 1.25 2.75.3-.15-.75.9-1.45 2.5-1.6l2.8-.35-2.4 2.6c-2.25 2.45-5.65 2.7-5.65.45 0-.5-1.35-.9-3-.9s-3 .45-3 1 .45 1 1 1 1 .7 1 1.6c0 1.2.6 1.45 2.4 1 1.35-.3 3.5-.2 4.75.35l2.35.9-2.5.15c-1.75.1-2.05.35-1 .8.85.4 1.5 1.35 1.5 2.2 0 .8.95 1.65 2.15 1.8 2.2.3 3.15-1.65 4-8.25.2-1.6.75-3.2 1.25-3.5 3.25-2.1 2.15-13-1.55-14.75-2.35-1.1-2.45-1-2.15 1.5zM55.2 18.5c-.15 1.65-.5 4.8-.85 7-.45 3.05-.35 3.75.55 2.9.75-.7 1.05-3.3.85-7-.2-3.25-.45-4.55-.55-2.9zM70.25 18c.1 1.1.55 2 .95 2 .45 0 .8.9.8 2s.45 2 1 2c1.45 0 1.25 2.75-.25 3.35-1 .4-1 .7.05 1.4.7.5 1.35 2 1.45 3.35.05 1.3.6 3.05 1.2 3.8.75 1.05.7 1.55-.2 1.85-2.95 1-.8 1.85 4.85 1.9 3.9.05 6.4.55 6.9 1.4.55.9.95.35 1.15-1.65l.35-2.9 1.7 3.3c1.5 2.95 1.45 5.8-.15 7.2C88.9 48 87 54.75 87 57.9c0 5.75 2.45 2.9 3.4-4 .5-3.5 1.05-6.6 1.25-6.85.65-.75 3.3 3.4 3.3 5.25.05 2.75 2.05.95 2.05-1.85 0-1.35.5-2.45 1.1-2.45.6 0 .15-.8-1.05-1.75-2.4-1.95-4.2-10.25-2.2-10.25.65 0 1.15.5 1.15 1.05 0 .6.45.8 1 .45 2.65-1.6.9-3.35-3-3-2.2.2-4 0-4-.45 0-.5-.9-.65-2-.35-1.1.3-2.65 0-3.45-.65-.8-.65-2.45-1.05-3.75-.85-1.25.15-2.35-.15-2.4-.7-.55-4.4-1.9-7.4-3.5-7.8-1.25-.35-1.7-1.05-1.3-2.1.35-.9.1-1.6-.5-1.6s-1.1-.9-1.1-2-.4-2-.95-2c-.5 0-.85.9-.8 2zM49 30c0 3.3.4 6 .9 6s.95-2.7.95-6c.05-3.3-.4-6-.9-6S49 26.7 49 30zM56.55 28.9c-.75 2.25 2.2 10.1 4.4 11.8 1.85 1.45 3.4 1.7 2.6.4-.3-.55-1-3.3-1.55-6.15-1.4-7.25-4.1-10.3-5.45-6.05zM123.8 30.25c-.65 1.25-1.1 2.6-1 3.05.15.45-.35.7-1.05.65-3.65-.5-4 0-3.55 5 .3 2.75.1 4.75-.35 4.45-.45-.3-.85.75-.85 2.3-.05 2.25-.25 2.5-1.1 1.3-.95-1.35-1-1.35-.6 0 .2.8 1.15 1.35 2.05 1.2 1.05-.2 1.65.4 1.65 1.65 0 2.55 3.65 3.5 5.1 1.3.9-1.4.95-1.35.4.35-1.5 4.45-1.45 5.7.1 5.1.85-.35 1.75-.6 2-.6.85 0 2.65-5.5 2.95-8.95.2-2.4.05-3-.6-2-.7 1.1-.9 1.1-.95.15 0-.75-.35-1.1-.8-.8-.8.45-4.7-3.3-4-3.85.15-.15 1.3-.8 2.55-1.45 2.9-1.5 3.1-4.5.25-3.6-1.1.35-2 .35-2 0 0-1.4 2.15-4.5 3.1-4.5.55 0 .75.45.4 1-.35.6.55.95 2.2.95 2.65-.05 2.7-.1.55-1-1.25-.5-2.25-1.6-2.25-2.4 0-2.35-2.75-1.85-4.2.7zm-1.4 16.5c-.8 3.25-1.2 3.8-2 2.95-.95-.9.45-5.7 1.65-5.7.55 0 .7 1.15.35 2.75zM6.7 30.7c-.5 1.3-2 2.4-3.75 2.8-5.65 1.25-3.45 3 4.3 3.4 4.75.25 6.5-1.2 2.8-2.4C8.9 34.15 8 32.8 7.8 31.2c-.35-2.55-.4-2.6-1.1-.5zM99 32.9c0 2 1.3 4.1 2.5 4.1.75 0 1.5.4 1.65.9.55 1.35 4.85-.65 4.85-2.3 0-.8-.35-1.7-.75-1.95-1.65-1-8.25-1.6-8.25-.75zM153.65 33.5c.3.8 1.15 1.5 1.85 1.5.7 0 1.55-.7 1.85-1.5.45-1.1-.1-1.5-1.85-1.5s-2.3.4-1.85 1.5zM113.55 33.9c-.65 1.05 2.25 3.65 3.1 2.8.85-.85-.35-3.7-1.55-3.7-.55 0-1.25.4-1.55.9z"/><path d="M108.55 38.25c-1.05 2-1.25 3.35-.6 3.55 1.25.45 1.4 3.2.2 3.2-.45 0-.9 1.25-1 2.75-.1 1.5-.25 3.65-.4 4.75-.15 1.2.35 2 1.25 2 .85 0 1.55-.9 1.65-2 .05-1.1.2-2.65.25-3.4.25-3.35 3.95 2.25 4.6 7 .75 5.3 2.1 6.4 3.1 2.45.4-1.6-.15-4.1-1.5-6.85-1.15-2.4-2.1-4.85-2.1-5.5 0-.65-.45-1.2-1-1.2s-1-.7-1-1.6c0-1.2.6-1.45 2.5-1 1.45.35 2.5.2 2.5-.4 0-.55-.35-1-.75-1s-1.65-1.35-2.75-3c-2.5-3.75-3-3.75-4.95.25zM24 37.75c0 1.85.55 2.25 3.05 2.25 1.8 0 2.8.4 2.45 1-.35.6.55 1 2.2 1 2.15-.05 2.45-.25 1.3-1-1.2-.8-1.05-.95.8-1 4.3 0 1.35-1.6-3.45-1.85-2.65-.15-5.15-.8-5.55-1.45-.5-.75-.8-.35-.8 1.05zM56.35 40c.35 1.35.65 3.05.65 3.75 0 .7.7 1.25 1.5 1.25 2.1 0 1.85-1.75-.65-4.85L55.7 37.5l.65 2.5z"/><path d="M144.1 38.75c-.05.7-.7 1.25-1.5 1.25-.75 0-1.9.65-2.6 1.5-.7.8-2.3 1.5-3.55 1.5-2.8 0-4 1.6-2.55 3.4.6.7.75 1.65.35 2.1-.4.45-.25.55.4.15 2.15-1.25 4 2.4 1.95 3.9-1 .75-1.5 1.85-1.1 2.5.6.9.95.85 1.5-.05.55-.85.95-.9 1.45-.1.7 1.15.25 1.3-3.95 1.3-4.1 0-4.25-.1-3.85-2.95l.35-2.75-1.4 2.95c-1.9 4.05-1.1 5.6 2.5 4.9 1.95-.4 2.9-.2 2.9.65 0 .65.65.95 1.5.65 1.65-.65 2.1.9.5 1.85-1.5.95-1.2 2.5.4 1.9.75-.3 1.7-.05 2.1.6 1.2 1.95-.35 2.35-2.85.7-1.7-1.1-2.7-1.25-3.45-.5-.8.8-2.05.6-4.55-.55-7-3.35-15.65 1-15.65 7.85 0 1.7-.45 2.5-1.25 2.25-1.85-.6-2.1-3.6-.7-7.95 1-3 1.05-4.1.1-5.05-1.6-1.6-3.1.65-3.15 4.6 0 2.4-.35 2.8-2.05 2.35-1.7-.45-1.95-.15-1.5 1.65.3 1.15.25 1.6-.05.9-1.05-2.3-2.4-1.3-2.4 1.75 0 3.5 1 3.85 2.75 1 1.6-2.55 3.7-2.75 2.35-.2-.55 1.05-.6 2.4 0 3.4.5.9 1.1 2.95 1.3 4.5.2 1.55.45 3.25.6 3.8.55 2.3-.1 3.5-2 3.5-1.1 0-2 .65-2 1.45 0 .8-.5 1.75-1.15 2.15-.7.45-.9.25-.45-.45.4-.65.1-1.15-.75-1.15-.8 0-1.65-.5-1.85-1.1-.2-.65-1.25-.9-2.35-.65-1.7.4-1.65.55.75 1.55 2.1.85 2.65 1.75 2.6 4.2-.1 3.15-4.15 7.55-5.95 6.4-.45-.3-2.05.4-3.5 1.5-3.9 3.1-.35 4.05 4.6 1.25 5.25-2.95 10.1-2.8 12.85.35 2.3 2.65 4.65 3.2 5.75 1.45.8-1.35-2.15-3.65-5.7-4.45-7.2-1.65-7.2-5.95 0-10.8 2.3-1.55 4.15-3.5 4.15-4.25 0-.8.45-1.45 1.05-1.45.65 0 .8-1.8.35-4.95l-.65-5 5.15.6c5.75.7 9.25-1.25 8.6-4.75-.25-1.1.05-1.7.55-1.35.5.3.95-.15.95-1 0-1.75 2.45-2.05 4.3-.55.65.55 2.45 1.95 3.95 3.1 2.6 1.95 3.95 6.9 1.85 6.9-.8 0-2.3-2.45-2.5-4.15-.2-1.45-1.6-2.1-1.6-.75-.05.75-1.5 2.15-3.25 3.05-1.8.9-3.15 2.1-3 2.75.15.6-.2 1.1-.75 1.1s-1-.55-1.05-1.25c0-.75-.5-.6-1.35.5-.7.95-1.55 1.45-1.85 1.15-.35-.3-1.4-.15-2.4.45-1.65.9-1.55 1.05.9 1.7 1.5.35 2.75 1.05 2.75 1.55 0 1.55 3.9 4.9 4.5 3.85.9-1.4 2.55-1.15 2.25.3-.15.7.95 1.4 2.5 1.55 1.5.2 2.75-.15 2.75-.75 0-.55-.7-1.05-1.55-1.05-1.15 0-1.5-.8-1.25-2.75.65-5.7 8.35-3.45 10.4 3.05 1.2 3.75 2.45-.6 1.3-4.65-1.45-5.25-.2-6.4 3.05-2.85 1.5 1.65 3.6 3.2 4.65 3.45 1.55.4 1.3.7-1.25 1.7-2.65 1-5.15 3.8-4.1 4.55 1.3.9 9.05 3.45 9.55 3.1.4-.2 1.5.7 2.5 2 2.4 3.2.85 3.05-5.95-.6-3.05-1.65-6-2.7-6.5-2.4-.5.3 1.8 1.9 5.15 3.55 3.3 1.65 6 3.4 6 3.95 0 1.45-1.1 1.1-4.5-1.55-3.65-2.8-8.5-4.35-8.5-2.7 0 .55.5 1.35 1.15 1.75.75.45.6.95-.55 1.6-.9.5-1.35 1.35-1.05 1.9.35.55.15 1.6-.45 2.3-.85 1-.35 2.05 1.9 4.45 3.15 3.3 4.1 5.3 1.5 3.15-2.5-2.1-2.65-.7-.5 5.5 2.75 8 2.6 11.85-.55 14.8-1.75 1.6-2.65 3.55-2.75 6.05-.15 2.6-.65 3.65-1.8 3.65-2.25 0-6.75 4.15-5.15 4.7 1.9.7.45 2.3-1.55 1.65-1.45-.45-1.45-.4-.2.55 1.9 1.35 5 1.4 5 .1 0-.55 1.1-1 2.45-1 3.65 0 6.9-1.75 9-4.9 3.85-5.75 12.55-4.9 12.55 1.25 0 .85.9 2.05 2 2.65 2.2 1.2 2.65 3.95.9 5.7-.85.85-1.9.35-4-1.95l-2.8-3.1-5.25 3.25c-4.25 2.65-5.95 3.2-8.85 2.7-3.2-.5-17.8 2.5-25 5.2-1.35.5-3 .75-3.6.5-.6-.2-1.65.3-2.35 1.15-1.05 1.25-1.05 1.55.05 1.55.7 0 2.35 1.25 3.6 2.75 2.15 2.7 2.25 2.7 2.25.5.05-1.25-.4-2.25-.95-2.25-1.8 0-1.05-1.55.75-1.65.95 0 3.65-.35 6-.75 4.15-.7 4.25-.65 4.15 2.1 0 1.55-.3 2.25-.55 1.55-.8-1.95-2.35-1.45-2.35.75 0 1.25.95 2.4 2.4 2.95 1.3.5 2.75 1.45 3.15 2.15.5.75.35.95-.4.5-.65-.4-1.15-.1-1.15.8 0 1.25-.55 1.3-3 .45-1.65-.6-3-1.45-3-1.95s-.65-.9-1.5-.9c-1.8 0-1.95 1.15-.3 2.8 1.95 1.95-.15 1.4-3.3-.85-3.4-2.45-3.9-.95-.7 2 1.15 1.1 1.8 2.35 1.4 2.8-.4.4-2.45-1.1-4.6-3.35-4.2-4.5-10.6-6.6-11.65-3.85-.75 1.95-2 1.85-2.75-.2-.4-1 .15-2.4 1.35-3.55 1.15-1.05 2.05-2.05 2.05-2.3 0-.95-6.7 1.95-8.7 3.8-2.1 1.85-2.25 4.4-.2 3.15 2.15-1.35 4.9.65 4.3 3.15-.5 2-.3 2.3 1.1 1.75 1.4-.5 1.6-.25 1.1 1.35-1.15 3.65 20.4 4.7 28.75 1.35 15.5-6.1 24.35-9.25 28.5-10 2.5-.5 4.75-1.4 5-2.1.2-.65 1.2-1.85 2.15-2.7 1-.8 2.95-2.55 4.45-3.85 1.45-1.3 3.85-3.05 5.35-3.85 1.5-.75 3.85-2.45 5.2-3.75 1.4-1.25 4.05-2.45 6-2.6 3.5-.25 5.9-1.65 4.75-2.75-.3-.35-1.5-.1-2.6.45-1.45.8-2.2.8-2.7 0s-.95-.7-1.55.25c-.75 1.15-1.05 1.1-1.8-.05-1.9-2.95 4.8-5.25 8.5-3 3.3 2 6.4 2.5 6.4 1 0-1.35 4.75-1.95 5.95-.75 1 1 4.2 1.4 12.35 1.55 2.1.05 3.55.5 3.25 1-.5.85 7.4-.55 8.35-1.45 1.15-1.15-1.55-1.95-6.45-1.8-3.95.05-5.5-.3-5.9-1.45-1-2.6 1.35-4 3-1.75 1.25 1.7 1.45 1.7 1.45.25 0-.95-.45-1.7-1-1.7s-1-.4-1-.9c0-2.2 9.9-3.9 11.15-1.9.65 1.05.8 1.05.85 0 0-.7.85-1.6 1.9-2 1.65-.6 1.4-.95-1.6-2.45-1.9-1-3.15-1.3-2.8-.75.35.55.15 1-.4 1s-1.3-.5-1.65-1.1c-.4-.6-1.75-.9-3.05-.65-1.35.25-2.4.1-2.4-.4 0-.45-.7-.85-1.55-.85-.85 0-1.3.4-1 .9.3.45-.15 1.45-.95 2.1-.85.7-1.55.85-1.6.35-.1-.45-.2-1.3-.25-1.85-.35-2.55-3.05-4-6.8-3.65-2.1.2-3.85-.1-3.85-.65 0-.5-.9-1.2-2.05-1.5-2-.55-4.65 3.35-3.5 5.2.7 1.1-.75 2.75-3.1 3.5-1.25.4-2.5.2-2.85-.45-.4-.6.2-1.3 1.45-1.65 1.95-.5 2-.7.55-2.3-2.25-2.5-6.65-.5-5.85 2.65.25 1.15.05 2.45-.55 2.8-.6.35-1.1 1.55-1.1 2.6 0 1.55-.7 1.95-3.5 1.95-2.45 0-3.5-.45-3.5-1.5 0-.85-.6-1.5-1.35-1.5-2 0-2.75 1.15-1.65 2.5.7.8-.25 1.95-3.1 3.85-4.85 3.15-5.9 3.3-5.9.7 0-1.2-1.2-2.6-3-3.55-1.7-.9-3-2.35-3-3.4 0-1-.65-2.4-1.5-3.1-3.7-3.05-1.15-11.05 2.75-8.6 3.5 2.2 4-.8.75-5.2-1.65-2.3-3-4.65-3-5.2 0-.55-.4-1-.95-1-1.5 0-2.25 3.8-1.1 5.9 1.1 2.1-.1 3.75-1.95 2.6-.55-.35-1 .2-1 1.2-.05 1.15-.6.65-1.65-1.45-1.55-3.15-3.35-4.35-3.35-2.2 0 1.7-1.7.15-2.3-2.1-.45-1.7-.3-1.85.9-.9 2.15 1.8 1.8-.9-.6-4.55-2.9-4.4-2.45-5 1.25-1.55 3.3 3.1 4.75 3.75 4.75 2.15 0-.5 1-.65 2.15-.35 3.8 1-.85-4.2-6.6-7.4-5.75-3.15-4.65-4.4 1.35-1.5 2.75 1.3 4.15 1.55 4.45.8.5-1.25 6.65 4.55 6.65 6.25 0 .6.7.8 1.5.45 1.65-.65 2.1-5.3.5-5.5-.55-.05-1.4-.15-1.9-.25-1.45-.15-2.55-1.6-1.25-1.6.6 0 1.15-.5 1.15-1.05 0-.65-.85-.8-2-.45-2.15.7-2.85-1-.75-1.85 1-.4 1-.5 0-.55-1.8-.15-1.55-2.1.25-2.1.85 0 1.55.55 1.55 1.25.05.7.5.35.95-.75.75-1.7.85-1.75.95-.25 0 .95.5 1.75 1.05 1.75s1.05.8 1.1 1.75c.05 1.05.25 1.25.55.5.3-.7 1.15-1.25 1.95-1.25.75 0 1.4-.9 1.4-2.05 0-2.3 6-2.45 6.75-.2.2.65-.4.9-1.6.6-1.3-.35-2.35.15-3.1 1.5-.65 1.25-1.7 1.85-2.55 1.5-2.2-.85-1.85 2 .5 4.15 1.55 1.4 2 1.5 2 .4 0-.85.9-.35 2.25 1.25 1.25 1.4 3.05 2.9 4.05 3.2 1 .35 1.75 1.45 1.65 2.4-.35 3.35 0 4.85.85 3.5.45-.65 2.35-1.5 4.25-1.8 2.3-.4 3-.3 2.1.35-.7.5-1.4 1.3-1.5 1.8-.1.5-.95.85-1.9.8-1.15-.05-1.75.7-1.75 2.2 0 3.3 1.05 5.4 2.65 5.4.8 0 1.2-.45.85-1s-.1-1 .5-1 .8-.55.4-1.15c-.5-.8-.15-1 1-.5 1 .35 2.15.65 2.65.65s.65.65.35 1.4c-.3.75-.05 1.7.55 2.05.6.4 1.5-.5 2.05-1.95.55-1.45 1.45-2.35 2-2 .55.35 1-.3 1-1.45 0-1.1-.4-2.05-.95-2.05-.5 0-1.05-1-1.25-2.25-.2-1.45-1.1-2.35-2.55-2.55-1.25-.2-2.05-.75-1.75-1.2.3-.5.1-1.15-.5-1.5-.55-.35-1 .1-1 .95s-.65 1.55-1.5 1.55c-.8 0-1.5-.7-1.5-1.5 0-.85-.45-1.5-1-1.5s-1-.9-1-2-.5-2-1.1-2c-.8 0-.75-.45.1-1.5 1-1.2.9-1.6-.4-2.1-.85-.35-1.6-1.25-1.6-2 0-1.6 2.9-.3 6.15 2.85 1 .95 2.65 1.75 3.6 1.75 1.35.05 1.45.25.4.9-1 .6-.85.95.7 1.35 1.5.4 1.85 1.1 1.45 2.65-.65 2.55 2.1 2.95 3.5.45 1.4-2.45 5.15 1.55 4.5 4.8-.45 2.35-.25 2.45 5.85 2.55 15.35.25 19 .75 20.4 2.65 2.1 2.95 19.95 3.05 19.95.15 0-1.45-1.55-2.75-5.5-4.7l-5.5-2.7-1.7 2.2c-1.35 1.75-1.95 1.95-2.95.95-1-1-1-1.25 0-1.25.85 0 .55-1.05-.85-3-1.15-1.65-2.95-3-3.95-3s-6.7-1.6-12.65-3.6c-7.9-2.55-11.9-3.4-14.55-3-2.5.4-4 .15-4.8-.85-.7-.8-2.2-1.75-3.4-2.15-1.2-.35-4.6-2.4-7.65-4.45-3-2.1-6.6-4.1-8-4.45-1.35-.35-5.2-2.85-8.5-5.55-3.25-2.7-6.65-5-7.5-5.05-.8-.05-3.95-.2-7-.25l-5.5-.15-.3-5c-.2-2.75-.75-5.45-1.25-5.95-.55-.5-.95-2-.95-3.25 0-1.65-.6-2.3-2-2.3-1.45 0-2-.65-2-2.45 0-1.35-.45-2.7-1-3.05-.55-.35-1-1.95-1-3.55 0-1.65-.45-2.95-1-2.95-1.95 0-.95-2.85 1.6-4.75 1.75-1.25 2.45-2.5 2.1-3.8-.25-1.1-.5-1.4-.6-.7zm13 80.5c.05.7 0 2.7-.1 4.5-.1 2.2.3 3.25 1.25 3.25.9 0 1.45 1.4 1.6 4 .25 4 .25 4-3.5 4-3.45 0-3.65-.15-2.2-1.55 1.8-1.8 1.3-6.35-.8-7.15-.75-.3-1.35-.9-1.35-1.4 0-.45.7-.6 1.5-.25 1.5.55 2-.95 1.65-4.9-.05-.95.3-1.75.85-1.75s1.05.55 1.1 1.25zm7.8 34.1c1.2 1.5-.95 7.25-2.25 5.95-.35-.35-1.25.15-1.95 1.1-1.65 2.25-3.75 1.35-6-2.65-2.8-4.8 6.5-8.85 10.2-4.4zm-12.7 4.9c1.4 1.8 1.6 5.15.45 6.4-.1.05-2.1.45-4.55.85-4.35.7-4.35.7-3.7-1.9.45-1.9.25-2.6-.75-2.6-1.8 0-2.9 2.7-2.1 5.15.8 2.55-1.3 2.35-3.6-.4-2.35-2.8-2.5-7.05-.35-8.85 1.4-1.15 1.9-1 3.5 1 1.75 2.15 1.9 2.15 1.9.4 0-4.15 6.05-4.15 9.2-.05zM81.15 41.15c-.1.9-1.1 1.85-2.3 2.15-1.55.45-1.95 1.15-1.6 2.65.3 1.1.2 2.05-.25 2.05s-.6.85-.3 1.95c.55 2.1 3.3 1.7 3.3-.45 0-.8.75-1.1 1.8-.85 2.35.65 4.65-2.1 3.7-4.4-.6-1.55-.85-1.45-1.8.75-1.05 2.45-1.1 2.4-1.75-1.5-.35-2.2-.75-3.25-.8-2.35zM104 42.8c0 .65-.5 1.1-1.1.95-3.3-.75-5.95 15.6-3 18.35 1.15 1.1 2.1 1.5 2.1.95 0-.6.45-1.05 1-1.05s1 .8 1 1.75c.05 1.5.15 1.55 1 .25 1.25-1.95 1.25-6.7 0-7.5-.55-.35-1-2.4-1-4.6 0-2.45-.4-3.75-1-3.4-.55.35-1-.3-1-1.45 0-2.15 2-2.95 2.05-.8 0 .7.5.4 1.1-.6.75-1.3.75-2.15-.05-2.95-.8-.8-1.1-.8-1.1.1z"/><path d="M145.5 44.05c-.6 1.9.9 4.95 2.4 4.95.4 0 .5-1.6.3-3.5-.45-3.9-1.7-4.6-2.7-1.45zM65 46.5c0 .8-.8 1.55-1.75 1.6-.95.1-2.4.2-3.25.25-2.5.25-2.25 3.45.45 6.15 2.95 3 3.1 3.5 1.05 3.5-.8 0-1.5-.45-1.5-1s-.45-1-.95-1c-.55 0-.75.7-.4 1.5.3.85 0 2.2-.7 3.05-1.6 1.95-.45 3.1 1.5 1.5 2.65-2.2 3.8-.65 1.6 2.15-1.1 1.45-2.05 3.3-2.05 4.1 0 1.5-2.6 3.15-4.55 2.85-.65-.1-.9 1.3-.65 3.4.4 3.45 2.85 4.5 2.55 1.1-.05-.9.4-1.65 1.05-1.65.6 0 2.2-2.25 3.5-5 1.3-2.75 2.75-5 3.2-5 .45 0 .6-.65.3-1.45-.4-1 0-1.25 1.5-.85 2.8.7 2.65 1.5-.9 5.3-1.65 1.75-3.95 5.05-5.1 7.35-1.15 2.3-2.9 5.75-3.9 7.7-2.05 4-1.45 6.15 1.6 5.35 1.9-.5 5.4-8.85 5.4-12.95 0-2.4 4.2-6.5 6.05-5.95 3.2 1.05 4.1-1.85 1.4-4.75C69.1 62.3 68 60.6 68 60c0-.65-.9-1-1.95-.8-1.1.15-2-.05-2-.45-.15-1.7 1.2-6.4 2.5-8.9C68.4 46.45 68.4 45 66.5 45c-.8 0-1.5.65-1.5 1.5z"/><path d="M72.7 51.85c-.9 2.2-2.1 4.25-2.65 4.6-1.6 1-1.25 2.55.55 2.55 1.05 0 1.4-.55 1-1.55-.3-.85-.15-1.3.3-1 3.05 1.85 5.5-3.7 3.25-7.3-.65-.95-1.35-.15-2.45 2.7zM37 61.95c0 .5-.8 1.1-1.75 1.35s-.1.5 1.95.6c2.95.1 3.6-.2 3.15-1.4-.6-1.6-3.35-2.1-3.35-.55zM77.3 63.55c-3.35 1.5-3.4 1.55-1.1 7.7 1.65 4.45 15.8 5.1 15.8.7 0-6.8-7.95-11.35-14.7-8.4zM184 71.15c0 .45.55.85 1.25.85.85.05.75.35-.25 1-1.2.75-1 1 1 1.1 3.7.2 5.4-.15 6.5-1.35.7-.7.6-.8-.3-.3-.75.4-2.1.1-3-.7-1.8-1.6-5.2-1.95-5.2-.6zM67.65 71.65c-3.15 3.15.9 10.9 4.6 8.75 1.55-.9-1.7 3.05-5.7 6.9-3.05 2.95-8.5 6.25-9.8 5.9-.4-.1-.75.25-.75.8s2.35.8 5.75.55c4.05-.3 5.15-.15 3.75.5-2 .95 2.65.45 6.75-.7 2.35-.65 2.25-3.4-.2-4.05-3.15-.85-1.25-3.3 2.6-3.3 1.9 0 3.2-.4 2.9-.9-.3-.5 0-1.2.7-1.5 1-.5 1-.7 0-1.2-.7-.3-1.25-1.15-1.25-1.9s-.55-1.55-1.25-1.8-.05-.3 1.45-.1c3.2.4 2.9-2.1-.3-3.15-1.1-.35-3.15-1.7-4.6-3.05-2.7-2.5-3.55-2.85-4.65-1.75zM96.6 73.6c-.7 1.75 0 3.4 1.45 3.4.55 0 .95-1.15.95-2.5 0-2.8-1.45-3.35-2.4-.9zM212.45 73.25c2.1 1.15 10.55 1.15 11.7 0 .4-.4-2.5-.85-6.45-.95-5.65-.1-6.8.1-5.25.95zM90.3 76.9c-.3 1.15-.95 2.1-1.5 2.1-.5 0-.8 1.25-.6 2.75.45 4.15 6.75 4.05 8.55-.1 1.6-3.7 1.55-4-.3-3.25-1.05.4-1.45.05-1.25-1.15.45-2.7-4.2-3-4.9-.35zM232 77.2c0 .5-.45.65-1 .3-1.3-.8-5 .35-5 1.55 0 .55 1.35.95 3 .95 1.85 0 2.9.45 2.75 1.25-.15.7.75 1.25 2.05 1.25 1.25 0 2.6.6 3.05 1.3.45.7 3.7 1.75 7.25 2.4 3.6.65 7.2 1.95 8.2 3 2.45 2.45 2.7 2.3 2.7-1.65 0-3.15-.3-3.5-3.5-4.1-3.75-.7-4.65-2.1-1.75-2.65.95-.2-.85-.4-4-.45-3.15-.05-5.75.3-5.75.8 0 .45-.9.85-2 .85-2.6 0-2.55-1.45.1-2.6 1.8-.85 1.6-1.05-2-2.05-2.4-.6-4.1-.7-4.1-.15zM215.5 78c-.4.6 1.15 1 3.95 1 2.5 0 4.55-.45 4.55-1s-1.75-1-3.95-1c-2.15 0-4.2.45-4.55 1zM117.75 84.45c-.25 1.35.05 2.65.65 2.9s0 .85-1.35 1.4c-2.2.85-1.9 1 2.8 1.65 2.95.35 4.95 1.1 4.65 1.65-.35.5.1.95 1 .95s1.35-.45 1-1c-.35-.55-.05-1.05.7-1.1.7 0 .05-.5-1.45-1.05s-2.75-1.4-2.75-1.9c0-.45-1.05-2-2.4-3.4l-2.35-2.6-.5 2.5zM82.5 88c-1.35 1.5-1.55 2.35-.75 3.15 1.4 1.4 8.4-.15 9.05-2 .3-1-.15-1.15-1.7-.7-1.5.5-2.1.25-2.1-.9 0-2.15-2.35-1.95-4.5.45zM133.5 91c1.7.75 1.6.85-1 .95-4.15.1-1.2 2 3.2 2.05 1.75 0 4.35.5 5.75 1.15 2.95 1.35 4.8.25 2.45-1.5-.85-.6-1.4-1.7-1.15-2.4.3-.9-1.15-1.25-5.4-1.2-4.2.05-5.3.35-3.85.95zM113.1 92.35c1.15 1.05 9.9 1.65 9.9.7 0-.6-2.2-1.05-5.15-1.05-2.85 0-5 .15-4.75.35zM140 96.95c0 .5-2.15 1.1-4.75 1.25l-4.75.3 5.45 1.7c3 .95 5.7 1.5 5.95 1.25s-.1-.45-.75-.45c-.6 0-1.15-.7-1.15-1.5 0-.9.9-1.5 2.25-1.5 1.8-.05 1.95-.2.75-1-1.9-1.25-3-1.25-3-.05zM67 102c0 .55 1.15 1 2.5 1 1.4 0 2.5.55 2.5 1.2 0 .9.3.9 1.25-.05 1-1 .95-1.45-.25-2.2-2-1.25-6-1.2-6 .05zM131.45 102.45c1.9 1.55 1.9 1.55-.05 1.55-1.1 0-2.55-.55-3.2-1.2-.9-.9-1.3-.45-1.8 2-.7 3.55-2.7 4.15-5.5 1.6-1.6-1.45-1.7-1.45-1.3.25.4 1.4-.3 2.2-2.55 3-2.65 1.05-2.95 1.5-2.15 3.5.9 2.5 3.35 2.65 6.1.45.85-.65 3.3-2.1 5.5-3.15 2.2-1.05 4.55-2.5 5.3-3.2 1.3-1.2 2.8-1.65 4.5-1.35.5.1.55-.35.15-1-.4-.6-.1-1.5.65-1.95 1.05-.65.85-.85-.6-.8-1.1 0-3.1-.25-4.5-.65-2.4-.6-2.45-.6-.55.95zM58.35 108.55C57.5 110.7 59.6 115 61.5 115c2.3 0 1.9-5.25-.5-6.8-1.7-1.05-2.15-1-2.65.35zM140.85 109.8c-.6 1.4-6.6 5.2-8.25 5.2-.9 0-1.6.4-1.6.9s-1.1 1.15-2.5 1.5c-2.4.6-3.55 2.6-1.5 2.6 1.8 0 1.05 1.75-1 2.3-1.1.3-2 1.2-2 2.05 0 .85-.9 1.8-2 2.15-1.1.35-2 1.5-2 2.6 0 2.25 9.3-1.9 11.75-5.25.7-.9 3.45-2.45 6.2-3.35 4.35-1.45 5-2 5.35-4.8.35-2.95.45-3 1.15-.95.45 1.25 1.2 2.25 1.65 2.25 1.25 0 1.1-.75-.7-3.55-.9-1.35-1.25-2.45-.75-2.45.95-.05-1.8-1.95-2.8-2-.4 0-.85.35-1 .8zM10.6 112.85c-.35.6-.35 2.25 0 3.65l.65 2.6 1.5-2.15c1.35-1.9 1.35-2.3 0-3.65-1-.95-1.75-1.15-2.15-.45zM87 112.9c0 1.5-6.3 3.7-6.75 2.3-.5-1.45-3.9-1.6-4.75-.2-.5.85 1 1.5 1.75.75.15-.1 2.35 1.3 4.95 3.15 4.8 3.45 7.8 3.25 7.8-.45 0-.75.8-1.8 1.75-2.35 1.65-.9 1.6-1.1-.25-2.5-2.25-1.7-4.5-2.05-4.5-.7zM107.45 114.4c-1.9 1.4-1.9 1.45-.05 3.5 2.65 2.9 4.4 2.65 4.05-.55-.4-3.65-1.7-4.6-4-2.95zM64 116.8c0 .4 1.15 1.95 2.5 3.4 1.4 1.5 2.5 3.35 2.5 4.15 0 .75 1.35 1.95 3 2.65s3 1.8 3 2.5c0 1.3 8.65 4.2 9.65 3.2s-4.7-5.6-6.25-5.05c-.85.35-1.4-.05-1.4-1 0-.85-1.55-2.3-3.45-3.2-1.9-.9-3.45-1.95-3.4-2.3.3-2.1-.45-3.05-3.15-4-1.65-.6-3-.75-3-.35zM53.65 118.65c-1.5 1.5-.45 5.05 2.4 8.35 1.7 1.9 3.8 4.75 4.7 6.25.95 1.5 2.4 2.75 3.3 2.75 1.8 0 4.3 2.5 5.3 5.3.45 1.3 1.25 1.65 2.65 1.2 2.95-.95 5.7.25 6.45 2.8.4 1.25.9 1.7 1.2 1 .35-.85 1.45-.65 3.95.75 1.9 1.05 4.1 1.95 4.95 1.95 1.55 0 1.75.85 1.5 5.2-.15 2.15.35 2.85 2.35 3.35 1.45.35 2.35 1.05 2.1 1.45-.3.45.05 1.1.75 1.4.7.35-.45.35-2.5.05-3.1-.45-3.75-.25-3.75 1.2 0 1.4-.25 1.5-1.25.5-.7-.7-1.25-1.75-1.25-2.4 0-.65-1.8-2.05-4-3.2-2.2-1.15-4.15-2.35-4.3-2.75-.2-.4-1.9-1.05-3.8-1.4-1.85-.35-3.65-1.05-4-1.55-.3-.5-.95-.65-1.4-.35-.45.3-1.15.1-1.5-.5-.35-.55-1.7-1-3-1s-2.65-.45-3-1c-.95-1.55-2.5-.15-2.5 2.25 0 2.1.05 2.1 1.4.2 2.05-2.8 4.45 2.1 2.65 5.4-1.4 2.65-4.3 2.9-3.85.3.15-1-.15-2-.7-2.25-1-.4-2.75 10.15-1.85 11.1.3.25 1.2-.4 2-1.5s1.9-1.9 2.4-1.75c1.45.4 4.95-3.55 4.95-5.6 0-3.65 4.9-3.25 8.9.75 1.15 1.15 2.8 2.1 3.65 2.1.85 0 1.3.4 1 .9-.3.45.25.8 1.2.75 1.1-.1 1.85.7 2.05 2.05.2 1.35.85 2 1.65 1.7 1.7-.65 2.9 1.2 1.9 2.85-.45.7-.7 2.15-.55 3.25.25 1.65-.3 1.4-2.8-1.3-1.7-1.8-2.8-3.7-2.5-4.25.35-.55-.75-.65-2.7-.3-4.05.8-4.6 1.2-2.9 2.3 1.1.65 1.1.9-.05 1.25-1.55.55-1.8 3.95-.35 5.05 1.75 1.25 2.5.8 2.6-1.5.1-2.15.15-2.15.8.2.5 1.9 1.65 2.65 4.6 3.3 6.05 1.25 7.05.75 6.7-3.3-.3-3.1.3-4.05 5.15-8.6 6.1-5.75 7.55-11.95 2.7-11.75-1.3.05-1.95-.4-1.65-1.2.25-.65-.15-1.5-.95-1.8-.8-.3-1.45-1.25-1.45-2.1 0-.95-.7-1.45-1.7-1.3-1.15.2-1.9-.55-2.25-2.2-.4-1.9-1.25-2.55-3.55-2.75-3.1-.25-4-.45-9-1.75-3.25-.85-7.5-4.8-7.5-6.9 0-.7-1.8-2-4-2.85-2.75-1.1-4-2.2-4-3.5 0-1.05-1.35-3.1-3-4.6-3.25-2.9-3.35-2.95-4.35-2zM11.35 121.55c-1.35 1-1.45 1.4-.45 1.4.8.05 2.25.8 3.25 1.7 1.75 1.55 1.85 1.5 1.85-.9 0-3.1-2.15-4.1-4.65-2.2zM111.4 122.35c-.35 1 .4 3 2 5.1 1.45 1.9 2.6 3.9 2.6 4.5 0 .55.7 1.05 1.5 1.05.85 0 1.5-.6 1.5-1.4 0-.75-.65-1.9-1.5-2.6-.8-.7-1.5-2-1.5-2.95 0-2.8-3.8-5.8-4.6-3.7zM141.25 124.75c-3.85 1.9-4.05 2.8-1 3.6 4.05 1.1 5.5.75 3.4-.8-1.7-1.3-1.7-1.4.45-1.7 2.4-.35 4-2.9 1.75-2.8-.75.05-2.8.8-4.6 1.7zM174.4 123.8c-.95.6-3.4 8.55-3.4 11 0 1.05 4.6 3.3 5.3 2.55.3-.3-.35-1.4-1.5-2.55-1.5-1.5-1.7-2.3-.85-3.15.9-.85 1.5-.75 2.45.6.7.95 1.6 1.45 1.95 1.05 1.15-1.15.7-2.3-.95-2.3-1.2 0-1.4-.65-1-2.75.65-3.1-.4-5.5-2-4.45z"/><path d="M21 125.8c0 1.45.85 2.25 2.95 2.7 1.65.35 4.1 1.55 5.5 2.65 1.4 1.1 2.55 1.65 2.55 1.2 0-1.65 7.95 7.1 8.9 9.8 1.6 4.6-2.35 4.7-7.9.2-.8-.65-3.45-1.4-5.8-1.65-2.95-.25-4.8-1.1-5.8-2.55-.85-1.2-2.2-2.15-3-2.15-.8 0-3.3-1.8-5.55-4.05-4.55-4.45-6.2-4.65-6.65-.65-.3 2.6 8.4 12.4 9.75 11.05.3-.25-.15-.95-1-1.5-1.15-.85-1.1-.95.4-.45 1 .35 2.95.6 4.3.6 1.75 0 2.4.5 2.3 1.75-.3 2.95.05 3.8.95 2.4 1-1.65 8.2.2 12 3.05 3.4 2.6 6.8 2.25 9.55-.95l2.35-2.7-2.4-4.8c-2.85-5.55-11-13.95-13.9-14.3-1.1-.15-3.7-.55-5.75-1-3.35-.65-3.75-.5-3.75 1.35zM132.6 133.25c.3 1 0 1.75-.7 1.75s-2.15-.8-3.2-1.75c-1.95-1.7-1.95-1.7-.85.4 1 1.95.9 2.1-1.1 1.7-2.25-.5-2.25-.5-.25 1.2 2.15 1.8-1.5 1.8-5.75 0-1.3-.55-1.75-.3-1.75.95 0 1.1-.55 1.5-1.5 1.15-.9-.35-1.5 0-1.5.9 0 1.75-1.6 1.9-2.4.2-.5-1-.7-1-1.2 0-.3.7-1 1-1.5.7-.5-.3-1.45-.2-2.15.25s-3.7 1.25-6.75 1.8c-6.4 1.15-8.7 4.5-3.05 4.5 1.65 0 3.05.45 3.05 1.05 0 1.45 8.15.35 9.15-1.25.45-.75.85-.85.85-.2 0 .6 1.35 1.05 3 1.05s3-.35 3-.75c0-1.75 3.3-3.95 5.1-3.35 1.05.3 1.9.2 1.9-.25s1.8-1.65 4-2.7c2.2-1.05 4-2.3 4-2.75 0-.45.5-.85 1.1-.85.55 0 2.35-1.3 3.95-2.85l2.85-2.9-4.45.15c-3.7.1-4.35.4-3.85 1.85zM236.6 134.35c.65 1.7 2 1.95 9.15 1.65 2.45-.1 4.25.3 4.25.9 0 .6 1.15 1.1 2.5 1.1 3.95 0 3.2-3-.75-3.1-5-.1-8.95-.55-12.5-1.4-2.8-.65-3.2-.5-2.65.85zM2 138c0 .6.65 1.8 1.45 2.6 1 .95 1.3 2.5.9 4.45-.7 3.35.55 3.9 2.35 1.05.9-1.45.8-2.55-.5-5.15C4.5 137.6 2 135.85 2 138zM16 144.55c0 .8 4.4 6.9 5.25 7.3.4.15.75.8.75 1.35 0 2.05 6.6 6.8 10.25 7.45 2.1.35 4.05 1 4.35 1.5.3.45 1.65.85 3.05.85 2.2 0 2.35-.15 1-1.5-.85-.8-2.55-1.5-3.85-1.5-1.25-.05-3.4-.9-4.8-2-1.35-1.1-3-1.95-3.65-2-.6 0-1.8-1-2.6-2.3C23.1 149.65 16 143 16 144.55zM67 146.5c0 2.9 3.9 3.4 4.8.6.25-.8 0-1.1-.6-.75-.55.4-1.75-.05-2.6-.9-1.45-1.45-1.6-1.35-1.6 1.05zM9.8 148.85c-.2 1.55-.25 3.35 0 4 .55 1.65 2.2 1.4 2.2-.3 0-2.2 2.55-.85 3.85 2.05 1.45 3.2 1.45 3.4-.35 3.4-.8 0-1.5.45-1.5 1s1.15 1 2.5 1c2.9 0 3.45-2.95 1-5-.8-.7-1.5-1.65-1.5-2.15 0-1.2-4.2-6.85-5.05-6.85-.4 0-.9 1.3-1.15 2.85zM123.5 149.25c-1.95 1.1-1.95 4.75 0 4.75.85 0 1.5-.7 1.5-1.5 0-.85.65-1.5 1.4-1.5.75 0 1.6-.6 1.9-1.3.55-1.45-2.5-1.75-4.8-.45z"/><path d="M0 154c0 4.85.1 5 2.9 5 1.55 0 4.2.25 5.85.6 3.2.65 4.8-1.1 3.25-3.6-.65-1.05-1.15-1-2.5.35-2.25 2.25-5 .65-6.65-3.85C1.1 147.6 0 148.15 0 154zM81.35 150.85c.9 1 1.65 2.35 1.65 3 0 .6.45 1.15 1 1.15 1.25 0 1.25-.25 0-3.45-.5-1.4-1.7-2.55-2.65-2.55-1.55 0-1.55.15 0 1.85zM48.75 154.25c.65 5.4 1.2 6.45 2.3 4.7 1.7-2.7 1.15-7.95-.9-7.95-1.45 0-1.75.6-1.4 3.25zM105.25 151.65c-1.8.75-1.55 3 .4 3.8 2.15.8 3.6-.65 2.8-2.8-.7-1.7-1.1-1.85-3.2-1zM237.25 151.65c-2.7 1.1-1.25 3.35 2.25 3.45 7.75.3 8.5.2 8.5-1.25 0-.7-1.25-.9-3.55-.55-2.6.45-3.7.2-4.1-.85-.6-1.5-1.05-1.6-3.1-.8zM220 153c-.8.55-2.55 1-3.8 1-1.3 0-2.95.6-3.7 1.4-.8.75-3.1 1.4-5.2 1.45-4.4.1-21.15 3.65-22.15 4.7-.75.85 9.25-.1 16.35-1.6 2.75-.55 7.15-1.25 9.75-1.6 2.6-.35 4.75-1.05 4.75-1.55 0-.55 1.7-.85 3.75-.8 11.8.55 15.25-.5 8.95-2.8-4-1.45-6.7-1.5-8.7-.2zM249.05 154.95c-.6 1.05-.65 2.15-.2 2.45 1.1.7 6.15-1.6 6.15-2.8 0-.5-.3-.65-.65-.3-.35.35-1.45.2-2.45-.35-1.4-.75-2.05-.55-2.85 1zM246 161.6l-2.5 1.35 3.65.05c2.85 0 3.75.45 4.15 2.1.7 2.65 3.1 2 3.5-.95.3-1.75-.15-2.15-2.3-2.15-1.5 0-2.35-.45-2-1 .85-1.4-1.5-1.1-4.5.6zM2 164c2 1.3 9.3 1.3 8.5 0-.35-.55-2.75-1-5.3-1-3.4.05-4.3.3-3.2 1zM14.2 163.75c-2.15.75-1.25 2.25 1.3 2.25 1.4 0 2.5.45 2.5 1s1.15 1 2.55 1c1.45 0 3.5.5 4.65 1.1 2.75 1.5 13.6 1.5 15.05.05.85-.85.8-1.15-.3-1.25-2.2-.1-4.95-.65-6.8-1.45-.9-.35-3.2-.8-5.15-.95-1.9-.2-5.55-.7-8.05-1.2-2.5-.5-5.1-.75-5.75-.55zM226.5 165c-.35.6.65 1 2.45 1 1.65 0 3.05.4 3.05.95 0 .5.9 1.2 2 1.55 1.1.35 2 1.25 2 2s.9 1.65 2 2c1.1.35 2 1.2 2 1.9 0 1.45 4.7 3.9 5.95 3.1.45-.25 2.45.2 4.4 1 4.55 1.9 4.65 1.9 4.65-.5 0-1.1-.45-2-.95-2-.5 0-2.15-1.15-3.65-2.55-1.8-1.6-3-2.1-3.45-1.4-.45.7-1.95.2-4.45-1.5-2.05-1.4-4.4-2.55-5.15-2.55s-1.35-.6-1.35-1.4c0-2.1-8.3-3.5-9.5-1.6zM50.2 167.05c-1.85 1.1-3.75 1.75-4.25 1.4-1.65-1-1 1.95.95 4.5l1.9 2.4-.4-3.1c-.2-2 .15-3.25 1.1-3.6.9-.35 1.2-.05.85.9-.35.95.1 1.45 1.35 1.45 1.05 0 2.5.55 3.2 1.25 1.1 1 1.2.8.6-1.15-.5-1.6-.35-2.15.4-1.65 1.4.85 1.4 0 .05-2.5-1.25-2.4-1.65-2.4-5.75.1zM62.15 169.55c-1.45 3.15-1.6 7.7-.2 5.5.65-1 2.35-1.35 5.5-1.2 2.5.15 4.55-.1 4.55-.55 0-1.8-2.45-3.3-5.45-3.4-1.7 0-2.5-.3-1.8-.55 1.65-.7 1.6-2.35-.1-2.35-.75 0-1.85 1.15-2.5 2.55zM180.95 168.15c-1.35.35-4 .75-5.95.85-2.8.2-2.25.45 2.5 1.15 3.3.5 6.85.7 7.85.45 1-.25 3.9.5 6.5 1.7 2.55 1.15 5.1 2.3 5.65 2.55.55.25.15-.55-.9-1.7-2.75-3.1-1.6-3.5 5.05-1.8 3.2.8 6.2 1.25 6.65.95 2.25-1.4 7.8 1.1 12.35 5.5 9.45 9.3 15.15 11.05 6.45 2-2.8-2.9-5.1-5.65-5.1-6.05 0-.4-.65-.75-1.45-.75-.8 0-1.95-.85-2.5-1.85-.6-1.15-1.9-1.8-3.25-1.65-1.25.1-1.5.05-.55-.2s1.75-.9 1.75-1.45c0-1.15-30.7-.85-35.05.3zM11.45 172.55c1.05.8 2.5 1.45 3.15 1.45.7 0 1.45.55 1.7 1.25s.85.85 1.3.4c1.25-1.15-3.3-4.65-5.95-4.6-2.1 0-2.1.05-.2 1.5zM223 171.4c0 .65 7 4.6 8.2 4.6.65 0 .6-.55-.2-1.5-.7-.85-1.85-1.5-2.6-1.5-.8 0-1.4-.45-1.4-1s-.9-1-2-1-2 .2-2 .4zM4 174.95c0 1.1.9 2.45 2 3.05 1.6.85 2 .75 2-.45 0-.85.35-1.5.75-1.45 2.85.45 3.45-.35 1.25-1.6-3.6-2.05-6-1.85-6 .45z"/><path d="M173 176.05c2.05.7 1.7.85-2 .75-2.45-.1-7.2 0-10.5.15l-6 .25 4.15.85c2.3.45 5.5 1.5 7.1 2.3 2.25 1.2 3.85 1.3 7.2.55 6-1.35 14.4.5 18.05 3.95 7.25 6.9 12 9.3 12 6.15 0-.55-.4-1-.9-1s-2.35-1.35-4.1-3c-1.75-1.65-3.85-3-4.65-3-.8 0-1.2-.45-.85-1s1.7-1 3-1 2.65-.45 2.95-.95c.8-1.25 3.55-.2 3.55 1.4 0 1.4 4.7 4.2 5.55 3.3.35-.3-.35-.85-1.45-1.25-2.5-.75-2.65-2.2-.55-4.6 1.75-1.85-3.75-2.2-7.8-.45-1 .45-2.65.55-3.75.25-1.1-.3-2 0-2 .6 0 .75-.4.7-1.2-.1-.65-.65-3.55-1.2-6.45-1.2-4.8 0-8.85-1.85-4.65-2.1 2.4-.2-3.55-1.65-6.7-1.7h-2.5l2.5.85zM18.3 180.1c-.9.9-.85 1.5.2 2.5.7.75 1.45 1.8 1.65 2.3.55 1.6 25.15 1.7 25.65.15.35-.95-.4-1.2-2.65-.85-1.75.25-3.15.05-3.15-.4 0-.5-.75-.5-1.65 0-1.75 1-5.5.45-6.4-.95-.3-.45-2.55-1.25-5-1.7-2.45-.5-5.15-1.2-6-1.55-.8-.35-2.05-.1-2.65.5zM143 180c0 .55 1.05 1 2.35 1 10 0-.7 4.05-14.75 5.6-13.5 1.45-18.45 3.65-7.25 3.25 3.7-.15 7-.6 7.25-1s2.15-.15 4.2.55c4.2 1.5 5.45 1.2 9.8-2.05 1.7-1.3 4.5-2.35 6.25-2.35 3.65 0 4.2 1.45.9 2.4-4.65 1.3.85 2.95 5.75 1.7 2.4-.6 5.7-.8 7.4-.45 2.45.45 3.1.25 3.1-1.05 0-1.85-2.6-2.1-6.6-.55-2.75 1.05-7.4-2.05-6.6-4.4.15-.5-.7-.65-1.95-.35-1.25.35-2.65.05-3.25-.75-1.4-1.7-6.6-2.95-6.6-1.55zM69.25 183.15c-.55.55-4.8.95-9.45.95-9.6-.05-15.6 2.2-8.8 3.25 6.65 1.05 19.1 1.35 19.65.45.3-.5 1.65-1.35 3.05-1.85 1.35-.55 2.3-1.5 2.05-2.2-.5-1.5-5.15-1.95-6.5-.6zM242.35 184.1c1.05.6 2.7 1.95 3.75 3 2.3 2.3 4.35 2.5 3.5.3-.65-1.65-.55-1.65 4.15.3.7.3 1.25-.15 1.25-.95 0-1.55-3.1-2.5-10.5-3.35-3.3-.35-3.65-.2-2.15.7zM214 185c0 .55.45 1 1 1s1 .55 1 1.25c0 1.55 5.45 4.75 8.1 4.75 1.65 0 1.75-.25.65-2-.65-1.1-1.8-2-2.45-2-.65 0-1.55-.6-2-1.35-1-1.7-6.3-3.1-6.3-1.65zM175.55 186.9c-.65 1.1 3.2 3.1 6 3.1.8 0 1.45.45 1.45 1s.7 1 1.5 1c1.8 0 1.85-.95.15-3.15-1.55-2.1-8.15-3.45-9.1-1.95zM85.2 188.6c-.65 1.15-1.75 1.55-3.6 1.15-1.7-.3-2.55-.1-2.3.65.55 1.7 7.9 1.9 10.2.25 2.2-1.65 2.05-2.1-1.2-3.05-1.5-.5-2.45-.15-3.1 1zM227.5 188c-.3.5 1.05 1.2 2.95 1.55 1.95.35 3.55 1.05 3.55 1.55 0 1.2 14.95 1 17.5-.2 1.9-.9 1.9-.9-.2-.55-1.2.25-5.25-.2-9-1-9.05-1.95-14.15-2.4-14.8-1.35z"/></svg>