<?xml version="1.0" standalone="no"?>
<!DOCTYPE svg PUBLIC "-//W3C//DTD SVG 20010904//EN"
 "http://www.w3.org/TR/2001/REC-SVG-20010904/DTD/svg10.dtd">
<svg version="1.0" xmlns="http://www.w3.org/2000/svg" width="255.000000pt" height="192.000000pt" viewBox="0 0 255.000000 192.000000" preserveAspectRatio="xMidYMid meet">
<metadata>
Created by potrace 1.10, written by Peter Selinger 2001-2011
</metadata>
<g transform="translate(0.000000,192.000000) scale(0.050000,-0.050000)" fill="#000000" stroke="none">
<path d="M1160 3792 c0 -79 -21 -112 -72 -112 -33 0 -43 -9 -35 -30 6 -16 23
-30 37 -30 14 0 31 14 37 30 17 43 71 37 112 -13 37 -46 87 -36 68 14 -8 21 4
29 44 29 67 0 59 14 -16 27 -30 6 -55 2 -55 -8 0 -11 -13 -19 -30 -19 -22 0
-30 22 -30 80 0 58 -8 80 -30 80 -18 0 -30 -19 -30 -48z"></path>
<path d="M1880 3721 c0 -10 -29 -22 -65 -27 -56 -7 -54 -8 20 -11 64 -2 85 5
85 27 0 17 -9 30 -20 30 -11 0 -20 -8 -20 -19z"></path>
<path d="M65 3666 c57 -15 44 -86 -15 -86 -31 0 -50 -11 -50 -30 0 -16 13 -30
28 -30 18 0 34 -31 42 -80 12 -74 50 -114 50 -54 0 64 51 134 98 134 47 0 47
1 12 40 -28 31 -41 35 -53 15 -10 -16 -17 -1 -17 40 0 60 -5 65 -65 63 -36 -2
-49 -7 -30 -12z"></path>
<path d="M375 3645 c50 -44 59 -96 20 -112 -14 -5 0 -11 30 -11 30 -1 55 7 55
18 0 29 207 25 239 -5 22 -20 24 -19 11 5 -13 24 -11 25 11 5 32 -30 119 -33
119 -5 0 11 -10 20 -23 20 -12 0 2 25 33 55 l55 55 -45 7 c-26 4 -65 -3 -88
-14 -56 -27 -152 -41 -152 -23 0 8 -29 16 -65 17 -36 1 -105 7 -155 15 l-90
13 45 -40z"></path>
<path d="M2824 3624 c5 -48 0 -53 -49 -48 -63 6 -74 -27 -15 -46 60 -19 21
-90 -49 -90 -22 0 -10 57 14 67 15 6 11 10 -9 11 -29 2 -96 -88 -96 -126 0 -6
27 -25 60 -42 45 -23 59 -25 55 -6 -3 15 18 29 50 32 l56 7 -48 -52 c-45 -49
-113 -54 -113 -9 0 10 -27 18 -60 18 -33 0 -60 -9 -60 -20 0 -11 9 -20 20 -20
11 0 20 -14 20 -32 0 -24 12 -29 48 -20 27 6 70 4 95 -7 l47 -18 -50 -3 c-35
-2 -41 -7 -20 -16 17 -8 30 -27 30 -44 0 -16 19 -33 43 -36 44 -6 63 33 80
165 4 32 15 64 25 70 65 42 43 260 -31 295 -47 22 -49 20 -43 -30z"></path>
<path d="M1104 3470 c-3 -33 -10 -96 -17 -140 -9 -61 -7 -75 11 -58 15 14 21
66 17 140 -4 65 -9 91 -11 58z"></path>
<path d="M1405 3480 c2 -22 11 -40 19 -40 9 0 16 -18 16 -40 0 -22 9 -40 20
-40 29 0 25 -55 -5 -67 -20 -8 -20 -14 1 -28 14 -10 27 -40 29 -67 1 -26 12
-61 24 -76 15 -21 14 -31 -4 -37 -59 -20 -16 -37 97 -38 78 -1 128 -11 138
-28 11 -18 19 -7 23 33 l7 58 34 -66 c30 -59 29 -116 -3 -144 -23 -20 -61
-155 -61 -218 0 -115 49 -58 68 80 10 70 21 132 25 137 13 15 66 -68 66 -105
1 -55 41 -19 41 37 0 27 10 49 22 49 12 0 3 16 -21 35 -48 39 -84 205 -44 205
13 0 23 -10 23 -21 0 -12 9 -16 20 -9 53 32 18 67 -60 60 -44 -4 -80 0 -80 9
0 10 -18 13 -40 7 -22 -6 -53 0 -69 13 -16 13 -49 21 -75 17 -25 -3 -47 3 -48
14 -11 88 -38 148 -70 156 -25 7 -34 21 -26 42 7 18 2 32 -10 32 -12 0 -22 18
-22 40 0 22 -8 40 -19 40 -10 0 -17 -18 -16 -40z"></path>
<path d="M980 3240 c0 -66 8 -120 18 -120 10 0 19 54 19 120 1 66 -8 120 -18
120 -10 0 -19 -54 -19 -120z"></path>
<path d="M1131 3262 c-15 -45 44 -202 88 -236 37 -29 68 -34 52 -8 -6 11 -20
66 -31 123 -28 145 -82 206 -109 121z"></path>
<path d="M2476 3235 c-13 -25 -22 -52 -20 -61 3 -9 -7 -14 -21 -13 -73 10 -80
0 -71 -100 6 -55 2 -95 -7 -89 -9 6 -17 -15 -17 -46 -1 -45 -5 -50 -22 -26
-19 27 -20 27 -12 0 4 -16 23 -27 41 -24 21 4 33 -8 33 -33 0 -51 73 -70 102
-26 18 28 19 27 8 -7 -30 -89 -29 -114 2 -102 17 7 35 12 40 12 17 0 53 110
59 179 4 48 1 60 -12 40 -14 -22 -18 -22 -19 -3 0 15 -7 22 -16 16 -16 -9 -94
66 -80 77 3 3 26 16 51 29 58 30 62 90 5 72 -22 -7 -40 -7 -40 0 0 28 43 90
62 90 11 0 15 -9 8 -20 -7 -12 11 -19 44 -19 53 1 54 2 11 20 -25 10 -45 32
-45 48 0 47 -55 37 -84 -14z m-28 -330 c-16 -65 -24 -76 -40 -59 -19 18 9 114
33 114 11 0 14 -23 7 -55z"></path>
<path d="M134 3226 c-10 -26 -40 -48 -75 -56 -113 -25 -69 -60 86 -68 95 -5
130 24 56 48 -23 7 -41 34 -45 66 -7 51 -8 52 -22 10z"></path>
<path d="M1980 3182 c0 -40 26 -82 50 -82 15 0 30 -8 33 -18 11 -27 97 13 97
46 0 16 -7 34 -15 39 -33 20 -165 32 -165 15z"></path>
<path d="M3073 3170 c6 -16 23 -30 37 -30 14 0 31 14 37 30 9 22 -2 30 -37 30
-35 0 -46 -8 -37 -30z"></path>
<path d="M2271 3162 c-13 -21 45 -73 62 -56 17 17 -7 74 -31 74 -11 0 -25 -8
-31 -18z"></path>
<path d="M2171 3075 c-21 -40 -25 -67 -12 -71 25 -9 28 -64 4 -64 -9 0 -18
-25 -20 -55 -2 -30 -5 -73 -8 -95 -3 -24 7 -40 25 -40 17 0 31 18 33 40 1 22
4 53 5 68 5 67 79 -45 92 -140 15 -106 42 -128 62 -49 8 32 -3 82 -30 137 -23
48 -42 97 -42 110 0 13 -9 24 -20 24 -11 0 -20 14 -20 32 0 24 12 29 50 20 29
-7 50 -4 50 8 0 11 -7 20 -15 20 -8 0 -33 27 -55 60 -50 75 -60 75 -99 -5z"></path>
<path d="M480 3085 c0 -37 11 -45 61 -45 36 0 56 -8 49 -20 -7 -12 11 -20 44
-20 43 1 49 5 26 20 -24 16 -21 19 16 20 86 0 27 32 -69 37 -53 3 -103 16
-111 29 -10 15 -16 7 -16 -21z"></path>
<path d="M1127 3040 c7 -27 13 -61 13 -75 0 -14 14 -25 30 -25 42 0 37 35 -13
97 l-43 53 13 -50z"></path>
<path d="M2882 3065 c-1 -14 -14 -25 -30 -25 -15 0 -38 -13 -52 -30 -14 -16
-46 -30 -71 -30 -56 0 -80 -32 -51 -68 12 -14 15 -33 7 -42 -8 -9 -5 -11 8 -3
43 25 80 -48 39 -78 -20 -15 -30 -37 -22 -50 12 -18 19 -17 30 1 11 17 19 18
29 2 14 -23 5 -26 -79 -26 -82 0 -85 2 -77 59 l7 55 -28 -59 c-38 -81 -22
-112 50 -98 39 8 58 4 58 -13 0 -13 13 -19 30 -13 33 13 42 -18 10 -37 -30
-19 -24 -50 8 -38 15 6 34 1 42 -12 24 -39 -7 -47 -57 -14 -34 22 -54 25 -69
10 -16 -16 -41 -12 -91 11 -140 67 -313 -20 -313 -157 0 -34 -9 -50 -25 -45
-37 12 -42 72 -14 159 20 60 21 82 2 101 -32 32 -62 -13 -63 -92 0 -48 -7 -56
-41 -47 -34 9 -39 3 -30 -33 6 -23 5 -32 -1 -18 -21 46 -48 26 -48 -35 0 -70
20 -77 55 -20 32 51 74 55 47 4 -11 -21 -12 -48 0 -68 10 -18 22 -59 26 -90 4
-31 9 -65 12 -76 11 -46 -2 -70 -40 -70 -22 0 -40 -13 -40 -29 0 -16 -10 -35
-23 -43 -14 -9 -18 -5 -9 9 8 13 2 23 -15 23 -16 0 -33 10 -37 22 -4 13 -25
18 -47 13 -34 -8 -33 -11 15 -31 42 -17 53 -35 52 -84 -2 -63 -83 -151 -119
-128 -9 6 -41 -8 -70 -30 -78 -62 -7 -81 92 -25 105 59 202 56 257 -7 46 -53
93 -64 115 -29 16 27 -43 73 -114 89 -144 33 -144 119 0 216 46 31 83 70 83
85 0 16 9 29 21 29 13 0 16 36 7 99 l-13 100 103 -12 c115 -14 185 25 172 95
-5 22 1 34 11 27 10 -6 19 3 19 20 0 35 49 41 86 11 13 -11 49 -39 79 -62 52
-39 79 -138 37 -138 -16 0 -46 49 -50 83 -4 29 -32 42 -32 15 -1 -15 -30 -43
-65 -61 -36 -18 -63 -42 -60 -55 3 -12 -4 -22 -15 -22 -11 0 -20 11 -21 25 0
15 -10 12 -27 -10 -14 -19 -31 -29 -37 -23 -7 6 -28 3 -48 -9 -33 -18 -31 -21
18 -34 30 -7 55 -21 55 -31 0 -31 78 -98 90 -77 18 28 51 23 45 -6 -3 -14 19
-28 50 -31 30 -4 55 3 55 15 0 11 -14 21 -31 21 -23 0 -30 16 -25 55 13 114
167 69 208 -61 24 -75 49 12 26 93 -29 105 -4 128 61 57 30 -33 72 -64 93 -69
31 -8 26 -14 -25 -34 -53 -20 -103 -76 -82 -91 26 -18 181 -69 191 -62 8 4 30
-14 50 -40 48 -64 17 -61 -119 12 -61 33 -120 54 -130 48 -10 -6 36 -38 103
-71 66 -33 120 -68 120 -79 0 -29 -22 -22 -90 31 -73 56 -170 87 -170 54 0
-11 10 -27 23 -35 15 -9 12 -19 -11 -32 -18 -10 -27 -27 -21 -38 7 -11 3 -32
-9 -46 -17 -20 -7 -41 38 -89 63 -66 82 -106 30 -63 -50 42 -53 14 -10 -110
55 -160 52 -237 -11 -296 -35 -32 -53 -71 -55 -121 -3 -52 -13 -73 -36 -73
-45 0 -135 -83 -103 -94 38 -14 9 -46 -31 -33 -29 9 -29 8 -4 -11 38 -27 100
-28 100 -2 0 11 22 20 49 20 73 0 138 35 180 98 77 115 251 98 251 -25 0 -17
18 -41 40 -53 44 -24 53 -79 18 -114 -17 -17 -38 -7 -80 39 l-56 62 -105 -65
c-85 -53 -119 -64 -177 -54 -64 10 -356 -50 -500 -104 -27 -10 -60 -15 -72
-10 -12 4 -33 -6 -47 -23 -21 -25 -21 -31 1 -31 14 0 47 -25 72 -55 43 -54 45
-54 45 -10 1 25 -8 45 -19 45 -36 0 -21 31 15 33 19 0 73 7 120 15 83 14 85
13 83 -42 0 -31 -6 -45 -11 -31 -16 39 -47 29 -47 -15 0 -25 19 -48 48 -59 26
-10 55 -29 63 -43 10 -15 7 -19 -8 -10 -13 8 -23 2 -23 -16 0 -25 -11 -26 -60
-9 -33 12 -60 29 -60 39 0 10 -13 18 -30 18 -36 0 -39 -23 -6 -56 39 -39 -3
-28 -66 17 -68 49 -78 19 -14 -40 23 -22 36 -47 28 -56 -8 -8 -49 22 -92 67
-84 90 -212 132 -233 77 -15 -39 -40 -37 -55 4 -8 20 3 48 27 71 23 21 41 41
41 46 0 19 -134 -39 -174 -76 -42 -37 -45 -88 -4 -63 43 27 98 -13 86 -63 -10
-40 -6 -46 22 -35 28 10 32 5 22 -27 -23 -73 408 -94 575 -27 310 122 487 185
570 200 50 10 95 28 100 42 4 13 24 37 43 54 20 16 59 51 89 77 29 26 77 61
107 77 30 15 77 49 104 75 28 25 81 49 120 52 70 5 118 33 95 55 -6 7 -30 2
-52 -9 -29 -16 -44 -16 -54 0 -10 16 -19 14 -31 -5 -15 -23 -21 -22 -36 1 -38
59 96 105 170 60 66 -40 128 -50 128 -20 0 27 95 39 119 15 20 -20 84 -28 247
-31 42 -1 71 -10 65 -20 -10 -17 148 11 167 29 23 23 -31 39 -129 36 -79 -1
-110 6 -118 29 -20 52 27 80 60 35 25 -34 29 -34 29 -5 0 19 -9 34 -20 34 -11
0 -20 8 -20 18 0 44 198 78 223 38 13 -21 16 -21 17 0 0 14 17 32 38 40 33 12
28 19 -32 49 -38 20 -63 26 -56 15 7 -11 3 -20 -8 -20 -11 0 -26 10 -33 22 -8
12 -35 18 -61 13 -27 -5 -48 -2 -48 8 0 9 -14 17 -31 17 -17 0 -26 -8 -20 -18
6 -9 -3 -29 -19 -42 -17 -14 -31 -17 -32 -7 -2 9 -4 26 -5 37 -7 51 -61 80
-136 73 -42 -4 -77 2 -77 13 0 10 -18 24 -41 30 -40 11 -93 -67 -70 -104 14
-22 -15 -55 -62 -70 -25 -8 -50 -4 -57 9 -8 12 4 26 29 33 39 10 40 14 11 46
-45 50 -133 10 -117 -53 5 -23 1 -49 -11 -56 -12 -7 -22 -31 -22 -52 0 -31
-14 -39 -70 -39 -49 0 -70 9 -70 30 0 17 -12 30 -27 30 -40 0 -55 -23 -33 -50
14 -16 -5 -39 -62 -77 -97 -63 -118 -66 -118 -14 0 24 -24 52 -60 71 -34 18
-60 47 -60 68 0 20 -13 48 -30 62 -74 61 -23 221 55 172 70 -44 80 16 15 104
-33 46 -60 93 -60 104 0 11 -8 20 -19 20 -30 0 -45 -76 -22 -118 22 -42 -2
-75 -39 -52 -11 7 -20 -4 -20 -24 -1 -23 -12 -13 -33 29 -31 63 -67 87 -67 44
0 -34 -34 -3 -46 42 -9 34 -6 37 18 18 43 -36 36 18 -12 91 -58 88 -49 100 25
31 66 -62 95 -75 95 -43 0 10 20 13 43 7 76 -20 -17 84 -132 148 -115 63 -93
88 27 30 55 -26 83 -31 89 -16 10 25 133 -91 133 -125 0 -12 14 -16 30 -9 33
13 42 106 10 110 -11 1 -28 3 -38 5 -29 3 -51 32 -25 32 12 0 23 10 23 21 0
13 -17 16 -40 9 -43 -14 -57 20 -15 37 20 8 20 10 0 11 -36 3 -31 42 5 42 17
0 31 -11 31 -25 1 -14 10 -7 19 15 15 34 17 35 19 5 0 -19 10 -35 21 -35 11 0
21 -16 22 -35 1 -21 5 -25 11 -10 6 14 23 25 39 25 15 0 28 18 28 41 0 46 120
49 135 4 4 -13 -8 -18 -32 -12 -26 7 -47 -3 -62 -30 -13 -25 -34 -37 -51 -30
-44 17 -37 -40 10 -83 31 -28 40 -30 40 -8 0 17 18 7 45 -25 25 -28 61 -58 81
-64 20 -7 35 -29 33 -48 -7 -67 0 -97 17 -70 9 13 47 30 85 36 46 8 60 6 42
-7 -14 -10 -28 -26 -30 -36 -2 -10 -19 -17 -38 -16 -23 1 -35 -14 -35 -44 0
-66 21 -108 53 -108 16 0 24 9 17 20 -7 11 -2 20 10 20 12 0 16 11 8 23 -10
16 -3 20 20 10 20 -7 43 -13 53 -13 10 0 13 -13 7 -28 -6 -15 -1 -34 11 -41
12 -8 30 10 41 39 11 29 29 47 40 40 11 -7 20 6 20 29 0 22 -8 41 -19 41 -10
0 -21 20 -25 45 -4 29 -22 47 -51 51 -25 4 -41 15 -35 24 6 10 2 23 -10 30
-11 7 -20 -2 -20 -19 0 -17 -13 -31 -30 -31 -16 0 -30 14 -30 30 0 17 -9 30
-20 30 -11 0 -20 18 -20 40 0 22 -10 40 -22 40 -16 0 -15 9 2 30 20 24 18 32
-8 42 -17 7 -32 25 -32 40 0 32 58 6 123 -57 20 -19 53 -35 72 -35 27 -1 29
-5 8 -18 -20 -12 -17 -19 14 -27 30 -8 37 -22 29 -53 -13 -51 42 -59 70 -9 28
49 103 -31 90 -96 -9 -47 -5 -49 117 -51 307 -5 380 -15 408 -53 42 -59 399
-61 399 -3 0 29 -31 55 -110 94 l-110 54 -34 -44 c-27 -35 -39 -39 -59 -19
-20 20 -20 25 0 25 17 0 11 21 -17 60 -23 33 -59 60 -79 60 -20 0 -134 32
-253 72 -158 51 -238 68 -291 60 -50 -8 -80 -3 -96 17 -14 16 -44 35 -68 43
-24 7 -92 48 -153 89 -60 42 -132 82 -160 89 -27 7 -104 57 -170 111 -65 54
-133 100 -150 101 -16 1 -79 4 -140 5 l-110 3 -6 100 c-4 55 -15 109 -25 119
-11 10 -19 40 -19 65 0 33 -12 46 -40 46 -29 0 -40 13 -40 49 0 27 -9 54 -20
61 -11 7 -20 39 -20 71 0 33 -9 59 -20 59 -39 0 -19 57 32 95 35 25 49 50 42
76 -5 22 -10 28 -12 14z m260 -1610 c1 -14 0 -54 -2 -90 -2 -44 6 -65 25 -65
18 0 29 -28 32 -80 5 -80 5 -80 -70 -80 -69 0 -73 3 -44 31 36 36 26 127 -16
143 -15 6 -27 18 -27 28 0 9 14 12 30 5 30 -11 40 19 33 98 -1 19 6 35 17 35
11 0 21 -11 22 -25z m156 -682 c24 -30 -19 -145 -45 -119 -7 7 -25 -3 -39 -22
-33 -45 -75 -27 -120 53 -56 96 130 177 204 88z m-254 -98 c28 -36 32 -103 9
-128 -2 -1 -42 -9 -91 -17 -87 -14 -87 -14 -74 38 9 38 5 52 -15 52 -36 0 -58
-54 -42 -103 16 -51 -26 -47 -72 8 -47 56 -50 141 -7 177 28 23 38 20 70 -20
35 -43 38 -43 38 -8 0 83 121 83 184 1z"></path>
<path d="M1623 3017 c-2 -18 -22 -37 -46 -43 -31 -9 -39 -23 -32 -53 6 -22 4
-41 -5 -41 -9 0 -12 -17 -6 -39 11 -42 66 -34 66 9 0 16 15 22 36 17 47 -13
93 42 74 88 -12 31 -17 29 -36 -15 -21 -49 -22 -48 -35 30 -7 44 -15 65 -16
47z"></path>
<path d="M2080 2984 c0 -13 -10 -22 -22 -19 -66 15 -119 -312 -60 -367 23 -22
42 -30 42 -19 0 12 9 21 20 21 11 0 20 -16 20 -35 1 -30 3 -31 20 -5 25 39 25
134 0 150 -11 7 -20 48 -20 92 0 49 -8 75 -20 68 -11 -7 -20 6 -20 29 0 43 40
59 41 16 0 -14 10 -8 22 12 15 26 15 43 -1 59 -16 16 -22 16 -22 -2z"></path>
<path d="M2910 2959 c-12 -38 18 -99 48 -99 8 0 10 32 6 70 -9 78 -34 92 -54
29z"></path>
<path d="M1300 2910 c0 -16 -16 -31 -35 -32 -19 -2 -48 -4 -65 -5 -50 -5 -45
-69 9 -123 59 -60 62 -70 21 -70 -16 0 -30 9 -30 20 0 11 -9 20 -19 20 -11 0
-15 -14 -8 -30 6 -17 0 -44 -14 -61 -32 -39 -9 -62 30 -30 53 44 76 13 32 -43
-22 -29 -41 -66 -41 -82 0 -30 -52 -63 -91 -57 -13 2 -18 -26 -13 -68 8 -69
57 -90 51 -22 -1 18 8 33 21 33 12 0 44 45 70 100 26 55 55 100 64 100 9 0 12
13 6 29 -8 20 0 25 30 17 56 -14 53 -30 -18 -106 -33 -35 -79 -101 -102 -147
-23 -46 -58 -115 -78 -154 -41 -80 -29 -123 32 -107 38 10 108 177 108 259 0
48 84 130 121 119 64 -21 82 37 28 95 -27 29 -49 63 -49 75 0 13 -18 20 -39
16 -22 -3 -40 1 -40 9 -3 34 24 128 50 178 37 68 37 97 -1 97 -16 0 -30 -13
-30 -30z"></path>
<path d="M1454 2803 c-18 -44 -42 -85 -53 -92 -32 -20 -25 -51 11 -51 21 0 28
11 20 31 -6 17 -3 26 6 20 61 -37 110 74 65 146 -13 19 -27 3 -49 -54z"></path>
<path d="M740 2601 c0 -10 -16 -22 -35 -27 -19 -5 -2 -10 39 -12 59 -2 72 4
63 28 -12 32 -67 42 -67 11z"></path>
<path d="M1546 2569 c-67 -30 -68 -31 -22 -154 33 -89 316 -102 316 -14 0 136
-159 227 -294 168z"></path>
<path d="M3680 2417 c0 -9 11 -17 25 -17 17 -1 15 -7 -5 -20 -24 -15 -20 -20
20 -22 74 -4 108 3 130 27 14 14 12 16 -6 6 -15 -8 -42 -2 -60 14 -36 32 -104
39 -104 12z"></path>
<path d="M1353 2407 c-63 -63 18 -218 92 -175 31 18 -34 -61 -114 -138 -61
-59 -170 -125 -196 -118 -8 2 -15 -5 -15 -16 0 -11 47 -16 115 -11 81 6 103 3
75 -10 -40 -19 53 -9 135 14 47 13 45 68 -4 81 -63 17 -25 66 52 66 38 0 64 8
58 18 -6 10 0 24 14 30 20 10 20 14 0 24 -14 6 -25 23 -25 38 0 15 -11 31 -25
36 -14 5 -1 6 29 2 64 -8 58 42 -6 63 -22 7 -63 34 -92 61 -54 50 -71 57 -93
35z"></path>
<path d="M1932 2368 c-14 -35 0 -68 29 -68 11 0 19 23 19 50 0 56 -29 67 -48
18z"></path>
<path d="M4249 2375 c42 -23 211 -23 234 0 8 8 -50 17 -129 19 -113 2 -136 -2
-105 -19z"></path>
<path d="M1806 2302 c-6 -23 -19 -42 -30 -42 -10 0 -16 -25 -12 -55 9 -83 135
-81 171 2 32 74 31 80 -6 65 -21 -8 -29 -1 -25 23 9 54 -84 60 -98 7z"></path>
<path d="M4640 2296 c0 -10 -9 -13 -20 -6 -26 16 -100 -7 -100 -31 0 -11 27
-19 60 -19 37 0 58 -9 55 -25 -3 -14 15 -25 41 -25 25 0 52 -12 61 -26 9 -14
74 -35 145 -48 72 -13 144 -39 164 -60 49 -49 54 -46 54 33 0 63 -6 70 -70 82
-75 14 -93 42 -35 53 19 4 -17 8 -80 9 -63 1 -115 -6 -115 -16 0 -9 -18 -17
-40 -17 -52 0 -51 29 2 52 36 17 32 21 -40 41 -48 12 -82 14 -82 3z"></path>
<path d="M4310 2280 c-8 -12 23 -20 79 -20 50 0 91 9 91 20 0 11 -35 20 -79
20 -43 0 -84 -9 -91 -20z"></path>
<path d="M2355 2151 c-5 -27 1 -53 13 -58 12 -5 0 -17 -27 -28 -44 -17 -38
-20 56 -33 59 -7 99 -22 93 -33 -7 -10 2 -19 20 -19 18 0 27 9 20 20 -7 11 -1
21 14 22 14 0 1 10 -29 21 -30 11 -55 28 -55 38 0 9 -21 40 -48 68 l-47 52
-10 -50z"></path>
<path d="M1650 2080 c-27 -30 -31 -47 -15 -63 28 -28 168 3 181 40 6 20 -3 23
-34 14 -30 -10 -42 -5 -42 18 0 43 -47 39 -90 -9z"></path>
<path d="M2670 2020 c34 -15 32 -17 -20 -19 -83 -2 -24 -40 64 -41 35 0 87
-10 115 -23 59 -27 96 -5 49 30 -17 12 -28 34 -23 48 6 18 -23 25 -108 24 -84
-1 -106 -7 -77 -19z"></path>
<path d="M2262 1993 c23 -21 198 -33 198 -14 0 12 -44 21 -103 21 -57 0 -100
-3 -95 -7z"></path>
<path d="M2800 1901 c0 -10 -43 -22 -95 -25 l-95 -6 109 -34 c60 -19 114 -30
119 -25 5 5 -2 9 -15 9 -12 0 -23 14 -23 30 0 18 18 30 45 30 36 1 39 4 15 20
-38 25 -60 25 -60 1z"></path>
<path d="M1340 1800 c0 -11 23 -20 50 -20 28 0 50 -11 50 -24 0 -18 6 -18 25
1 20 20 19 29 -5 44 -40 25 -120 24 -120 -1z"></path>
<path d="M2629 1791 c38 -31 38 -31 -1 -31 -22 0 -51 11 -64 24 -18 18 -26 9
-36 -40 -14 -71 -54 -83 -110 -32 -32 29 -34 29 -26 -5 8 -28 -6 -44 -51 -60
-53 -21 -59 -30 -43 -70 18 -50 67 -53 122 -9 17 13 66 42 110 63 44 21 91 50
106 64 26 24 56 33 90 27 10 -2 11 7 3 20 -8 12 -2 30 13 39 21 13 17 17 -12
16 -22 0 -62 5 -90 13 -48 12 -49 12 -11 -19z"></path>
<path d="M1167 1669 c-17 -43 25 -129 63 -129 46 0 38 105 -10 136 -34 21 -43
20 -53 -7z"></path>
<path d="M2817 1644 c-12 -28 -132 -104 -165 -104 -18 0 -32 -8 -32 -18 0 -10
-22 -23 -50 -30 -48 -12 -71 -52 -30 -52 36 0 21 -35 -20 -46 -22 -6 -40 -24
-40 -41 0 -17 -18 -36 -40 -43 -22 -7 -40 -30 -40 -52 0 -45 186 38 235 105
14 18 69 49 124 67 87 29 100 40 107 96 7 59 9 60 23 19 9 -25 24 -45 33 -45
25 0 22 15 -14 71 -18 27 -25 49 -15 49 19 1 -36 39 -56 40 -8 0 -17 -7 -20
-16z"></path>
<path d="M212 1583 c-7 -12 -7 -45 0 -73 l13 -52 30 43 c27 38 27 46 0 73 -20
19 -35 23 -43 9z"></path>
<path d="M1740 1582 c0 -30 -126 -74 -135 -46 -10 29 -78 32 -95 4 -10 -17 20
-30 35 -15 3 2 47 -26 99 -63 96 -69 156 -65 156 9 0 15 16 36 35 47 33 18 32
22 -5 50 -45 34 -90 41 -90 14z"></path>
<path d="M2149 1552 c-38 -28 -38 -29 -1 -70 53 -58 88 -53 81 11 -8 73 -34
92 -80 59z"></path>
<path d="M1280 1504 c0 -8 23 -39 50 -68 28 -30 50 -67 50 -83 0 -15 27 -39
60 -53 33 -14 60 -36 60 -50 0 -26 173 -84 193 -64 20 20 -94 112 -125 101
-17 -7 -28 1 -28 20 0 17 -31 46 -69 64 -38 18 -69 39 -68 46 6 42 -9 61 -63
80 -33 12 -60 15 -60 7z"></path>
<path d="M1073 1467 c-30 -30 -9 -101 48 -167 34 -38 76 -95 94 -125 19 -30
48 -55 66 -55 36 0 86 -50 106 -106 9 -26 25 -33 53 -24 59 19 114 -5 129 -56
8 -25 18 -34 24 -20 7 17 29 13 79 -15 38 -21 82 -39 99 -39 31 0 35 -17 30
-104 -3 -43 7 -57 47 -67 29 -7 47 -21 42 -29 -6 -9 1 -22 15 -28 14 -7 -9 -7
-50 -1 -62 9 -75 5 -75 -24 0 -28 -5 -30 -25 -10 -14 14 -25 35 -25 48 0 13
-36 41 -80 64 -44 23 -83 47 -86 55 -4 8 -38 21 -76 28 -37 7 -73 21 -80 31
-6 10 -19 13 -28 7 -9 -6 -23 -2 -30 10 -7 11 -34 20 -60 20 -26 0 -53 9 -60
20 -19 31 -50 3 -50 -45 0 -42 1 -42 28 -4 41 56 89 -42 53 -108 -28 -53 -86
-58 -77 -6 3 20 -3 40 -14 45 -20 8 -55 -203 -37 -222 6 -5 24 8 40 30 16 22
38 38 48 35 29 -8 99 71 99 112 0 73 98 65 178 -15 23 -23 56 -42 73 -42 17 0
26 -8 20 -18 -6 -9 5 -16 24 -15 22 2 37 -14 41 -41 4 -27 17 -40 33 -34 34
13 58 -24 38 -57 -9 -14 -14 -43 -11 -65 5 -33 -6 -28 -56 26 -34 36 -56 74
-50 85 7 11 -15 13 -54 6 -81 -16 -92 -24 -58 -46 22 -13 22 -18 -1 -25 -31
-11 -36 -79 -7 -101 35 -25 50 -16 52 30 2 43 3 43 16 -4 10 -38 33 -53 92
-66 121 -25 141 -15 134 66 -6 62 6 81 103 172 122 115 151 239 54 235 -26 -1
-39 8 -33 24 5 13 -3 30 -19 36 -16 6 -29 25 -29 42 0 19 -14 29 -34 26 -23
-4 -38 11 -45 44 -8 38 -25 51 -71 55 -62 5 -80 9 -180 35 -65 17 -150 96
-150 138 0 14 -36 40 -80 57 -55 22 -80 44 -80 70 0 21 -27 62 -60 92 -65 58
-67 59 -87 40z"></path>
<path d="M227 1409 c-27 -20 -29 -28 -9 -28 16 -1 45 -16 65 -34 35 -31 37
-30 37 18 0 62 -43 82 -93 44z"></path>
<path d="M2228 1393 c-7 -20 8 -60 40 -102 29 -38 52 -78 52 -90 0 -11 14 -21
30 -21 17 0 30 12 30 28 0 15 -13 38 -30 52 -16 14 -30 40 -30 59 0 56 -76
116 -92 74z"></path>
<path d="M2825 1345 c-77 -38 -81 -56 -20 -72 81 -22 110 -15 68 16 -34 26
-34 28 9 34 48 7 80 58 35 56 -15 -1 -56 -16 -92 -34z"></path>
<path d="M3488 1364 c-19 -12 -68 -171 -68 -220 0 -21 92 -66 106 -51 6 6 -7
28 -30 51 -30 30 -34 46 -17 63 18 17 30 15 49 -12 14 -19 32 -29 39 -21 23
23 14 46 -19 46 -24 0 -28 13 -20 55 13 62 -8 110 -40 89z"></path>
<path d="M420 1324 c0 -29 17 -45 59 -54 33 -7 82 -31 110 -53 28 -22 51 -33
51 -24 0 33 159 -142 178 -196 32 -92 -47 -94 -158 -4 -16 13 -69 28 -116 33
-59 5 -96 22 -116 51 -17 24 -44 43 -60 43 -16 0 -66 36 -111 81 -91 89 -124
93 -133 13 -6 -52 168 -248 195 -221 6 5 -3 19 -20 30 -23 17 -22 19 8 9 20
-7 59 -12 86 -12 35 0 48 -10 46 -35 -6 -59 1 -76 19 -48 20 33 164 -4 240
-61 68 -52 136 -45 191 19 l47 54 -48 96 c-57 111 -220 279 -278 286 -22 3
-74 11 -115 20 -67 13 -75 10 -75 -27z"></path>
<path d="M2652 1175 c6 -20 0 -35 -14 -35 -14 0 -43 16 -64 35 -39 34 -39 34
-17 -8 20 -39 18 -42 -22 -34 -45 10 -45 10 -5 -24 43 -36 -30 -36 -115 0 -26
11 -35 6 -35 -19 0 -22 -11 -30 -30 -23 -18 7 -30 0 -30 -18 0 -35 -32 -38
-48 -4 -10 20 -14 20 -24 0 -6 -14 -20 -20 -30 -14 -10 6 -29 4 -43 -5 -14 -9
-74 -25 -135 -36 -128 -23 -174 -90 -61 -90 33 0 61 -9 61 -21 0 -29 163 -7
183 25 9 15 17 17 17 4 0 -12 27 -21 60 -21 33 0 60 7 60 15 0 35 66 79 102
67 21 -6 38 -4 38 5 0 9 36 33 80 54 44 21 80 46 80 55 0 9 10 17 22 17 11 0
47 26 79 57 l57 58 -89 -3 c-74 -2 -87 -8 -77 -37z"></path>
<path d="M4732 1153 c13 -34 40 -39 183 -33 49 2 85 -6 85 -18 0 -12 23 -22
50 -22 79 0 64 60 -15 62 -100 2 -179 11 -250 28 -56 13 -64 10 -53 -17z"></path>
<path d="M40 1080 c0 -12 13 -36 29 -52 20 -19 26 -50 18 -89 -14 -67 11 -78
47 -21 18 29 16 51 -10 103 -34 67 -84 102 -84 59z"></path>
<path d="M320 949 c0 -16 88 -138 105 -146 8 -3 15 -16 15 -27 0 -41 132 -136
205 -149 42 -7 81 -20 87 -30 6 -9 33 -17 61 -17 44 0 47 3 20 30 -17 16 -51
30 -77 30 -25 1 -68 18 -96 40 -27 22 -60 39 -73 40 -12 0 -36 20 -52 46 -53
81 -195 214 -195 183z"></path>
<path d="M1340 910 c0 -58 78 -68 96 -12 5 16 0 22 -12 15 -11 -8 -35 1 -52
18 -29 29 -32 27 -32 -21z"></path>
<path d="M196 863 c-4 -31 -5 -67 0 -80 11 -33 44 -28 44 6 0 44 51 17 77 -41
29 -64 29 -68 -7 -68 -16 0 -30 -9 -30 -20 0 -11 23 -20 50 -20 58 0 69 59 20
100 -16 14 -30 33 -30 43 0 24 -84 137 -101 137 -8 0 -18 -26 -23 -57z"></path>
<path d="M2470 855 c-39 -22 -39 -95 0 -95 17 0 30 14 30 30 0 17 13 30 28 30
15 0 32 12 38 26 11 29 -50 35 -96 9z"></path>
<path d="M0 760 c0 -97 2 -100 58 -100 31 0 84 -5 117 -12 64 -13 96 22 65 72
-13 21 -23 20 -50 -7 -45 -45 -100 -13 -133 77 -35 98 -57 87 -57 -30z"></path>
<path d="M1627 823 c18 -20 33 -47 33 -60 0 -12 9 -23 20 -23 25 0 25 5 0 69
-10 28 -34 51 -53 51 -31 0 -31 -3 0 -37z"></path>
<path d="M975 755 c13 -108 24 -129 46 -94 34 54 23 159 -18 159 -29 0 -35
-12 -28 -65z"></path>
<path d="M2105 807 c-36 -15 -31 -60 8 -76 43 -16 72 13 56 56 -14 34 -22 37
-64 20z"></path>
<path d="M4745 807 c-54 -22 -25 -67 45 -69 155 -6 170 -4 170 25 0 14 -25 18
-71 11 -52 -9 -74 -4 -82 17 -12 30 -21 32 -62 16z"></path>
<path d="M4400 780 c-16 -11 -51 -20 -76 -20 -26 0 -59 -12 -74 -28 -16 -15
-62 -28 -104 -29 -88 -2 -423 -73 -443 -94 -15 -17 185 2 327 32 55 11 143 25
195 32 52 7 95 21 95 31 0 11 34 17 75 16 236 -11 305 10 179 56 -80 29 -134
30 -174 4z"></path>
<path d="M4981 741 c-12 -21 -13 -43 -4 -49 22 -14 123 32 123 56 0 10 -6 13
-13 6 -7 -7 -29 -4 -49 7 -28 15 -41 11 -57 -20z"></path>
<path d="M4920 608 l-50 -27 73 -1 c57 0 75 -9 83 -42 14 -53 62 -40 70 19 6
35 -3 43 -46 43 -30 0 -47 9 -40 20 17 28 -30 22 -90 -12z"></path>
<path d="M40 560 c40 -26 186 -26 170 0 -7 11 -55 20 -106 20 -68 -1 -86 -6
-64 -20z"></path>
<path d="M284 565 c-43 -15 -25 -45 26 -45 28 0 50 -9 50 -20 0 -11 23 -20 51
-20 29 0 70 -10 93 -22 55 -30 272 -30 301 -1 17 17 16 23 -6 25 -44 2 -99 13
-136 29 -18 7 -64 16 -103 19 -38 4 -111 14 -161 24 -50 10 -102 15 -115 11z"></path>
<path d="M4530 540 c-7 -12 13 -20 49 -20 33 0 61 -8 61 -19 0 -10 18 -24 40
-31 22 -7 40 -25 40 -40 0 -15 18 -33 40 -40 22 -7 40 -24 40 -38 0 -29 94
-78 119 -62 9 5 49 -4 88 -20 91 -38 93 -38 93 10 0 22 -9 40 -19 40 -10 0
-43 23 -73 51 -36 32 -60 42 -69 28 -9 -14 -39 -4 -89 30 -41 28 -88 51 -103
51 -15 0 -27 12 -27 28 0 42 -166 70 -190 32z"></path>
<path d="M1004 499 c-37 -22 -75 -35 -85 -28 -33 20 -20 -39 19 -90 l38 -48
-8 62 c-4 40 3 65 22 72 18 7 24 1 17 -18 -7 -19 2 -29 27 -29 21 0 50 -11 64
-25 22 -20 24 -16 12 23 -10 32 -7 43 8 33 28 -17 28 0 1 50 -25 48 -33 48
-115 -2z"></path>
<path d="M1243 449 c-29 -63 -32 -154 -4 -110 13 20 47 27 110 24 50 -3 91 2
91 11 0 36 -49 66 -109 68 -34 0 -50 6 -36 11 33 14 32 47 -2 47 -15 0 -37
-23 -50 -51z"></path>
<path d="M3619 477 c-27 -7 -80 -15 -119 -17 -56 -4 -45 -9 50 -23 66 -10 137
-14 157 -9 20 5 78 -10 130 -34 51 -23 102 -46 113 -51 11 -5 3 11 -18 34 -55
62 -32 70 101 36 64 -16 124 -25 133 -19 45 28 156 -22 247 -110 189 -186 303
-221 129 -40 -56 58 -102 113 -102 121 0 8 -13 15 -29 15 -16 0 -39 17 -50 37
-12 23 -38 36 -65 33 -25 -2 -30 -1 -11 4 19 5 35 18 35 29 0 23 -614 17 -701
-6z"></path>
<path d="M229 389 c21 -16 50 -29 63 -29 14 0 29 -11 34 -25 5 -14 17 -17 26
-8 25 23 -66 93 -119 92 -42 0 -42 -1 -4 -30z"></path>
<path d="M4460 412 c0 -13 140 -92 164 -92 13 0 12 11 -4 30 -14 17 -37 30
-52 30 -16 0 -28 9 -28 20 0 11 -18 20 -40 20 -22 0 -40 -4 -40 -8z"></path>
<path d="M80 341 c0 -22 18 -49 40 -61 32 -17 40 -15 40 9 0 17 7 30 15 29 57
-9 69 7 25 32 -72 41 -120 37 -120 -9z"></path>
<path d="M3460 319 c41 -14 34 -17 -40 -15 -49 2 -144 0 -210 -3 l-120 -5 83
-17 c46 -9 110 -30 142 -46 45 -24 77 -26 144 -11 120 27 288 -10 361 -79 145
-138 240 -186 240 -123 0 11 -8 20 -18 20 -10 0 -47 27 -82 60 -35 33 -77 60
-93 60 -16 0 -24 9 -17 20 7 11 34 20 60 20 26 0 53 9 59 19 16 25 71 4 71
-28 0 -28 94 -84 111 -66 7 6 -7 17 -29 25 -50 15 -53 44 -11 92 35 37 -75 44
-156 9 -20 -9 -53 -11 -75 -5 -22 6 -40 0 -40 -12 0 -15 -8 -14 -24 2 -13 13
-71 24 -129 24 -96 0 -177 37 -93 42 48 4 -71 33 -134 34 l-50 0 50 -17z"></path>
<path d="M366 238 c-18 -18 -17 -30 4 -50 14 -15 29 -36 33 -46 11 -32 503
-34 513 -3 7 19 -8 24 -53 17 -35 -5 -63 -1 -63 8 0 10 -15 10 -33 0 -35 -20
-110 -9 -128 19 -6 9 -51 25 -100 34 -49 10 -103 24 -120 31 -16 7 -41 2 -53
-10z"></path>
<path d="M2860 240 c0 -11 21 -20 47 -20 200 0 -14 -81 -295 -112 -270 -29
-369 -73 -145 -65 74 3 140 12 145 20 5 8 43 3 84 -11 84 -30 109 -24 196 41
34 26 90 47 125 47 73 0 84 -29 18 -48 -93 -26 17 -59 115 -34 48 12 114 16
148 9 49 -9 62 -5 62 21 0 37 -52 42 -132 11 -55 -21 -148 41 -132 88 3 10
-14 13 -39 7 -25 -7 -53 -1 -65 15 -28 34 -132 59 -132 31z"></path>
<path d="M1385 177 c-11 -11 -96 -19 -189 -19 -192 1 -312 -44 -176 -65 133
-21 382 -27 393 -9 6 10 33 27 61 37 27 11 46 30 41 44 -10 30 -103 39 -130
12z"></path>
<path d="M4847 158 c21 -12 54 -39 75 -60 46 -46 87 -50 70 -6 -13 33 -11 33
83 -6 14 -6 25 3 25 19 0 31 -62 50 -210 67 -66 7 -73 4 -43 -14z"></path>
<path d="M4280 140 c0 -11 9 -20 20 -20 11 0 20 -11 20 -25 0 -31 109 -95 162
-95 33 0 35 5 13 40 -13 22 -36 40 -49 40 -13 0 -31 12 -40 27 -20 34 -126 62
-126 33z"></path>
<path d="M3511 102 c-13 -22 64 -62 120 -62 16 0 29 -9 29 -20 0 -11 14 -20
30 -20 36 0 37 19 3 63 -31 42 -163 69 -182 39z"></path>
<path d="M1704 68 c-13 -23 -35 -31 -72 -23 -34 6 -51 2 -46 -13 11 -34 158
-38 204 -5 44 33 41 42 -24 61 -30 10 -49 3 -62 -20z"></path>
<path d="M4550 80 c-6 -10 21 -24 59 -31 39 -7 71 -21 71 -31 0 -24 299 -20
350 4 38 18 38 18 -4 11 -24 -5 -105 4 -180 20 -181 39 -283 48 -296 27z"></path>
</g>
</svg>
